<svg xmlns="http://www.w3.org/2000/svg" width="273.859" height="196.019" viewBox="0 0 273.859 196.019">
  <g id="Group_348" data-name="Group 348" transform="translate(-214.678 -1866.825)">
    <g id="Group_59" data-name="Group 59" transform="translate(243.466 1866.825) rotate(11)">
      <g id="Group_5" data-name="Group 5" transform="translate(0 0)">
        <path id="Path_723" data-name="Path 723" d="M220.456,37.324c4.885-5,5.2-12.33,2.365-18.533-3.3-7.212-10.779-11.36-18.145-13.376-14.888-4.11-33.189-1.822-43.7,10.43l1.745.233C154.466,1.227,136.088-1.332,120.735.529,107.048,2.158,89.135,9.253,90.57,26.08l1.4-.853C77.271,14.953,56.1,15.3,41.717,26.08c-12.911,9.693-20.006,30.9-7.367,43.7l.388-1.473c-9.693,2.443-20.006,5.04-27.3,12.329-6.165,6.2-9.577,15.354-5.971,23.728,3.257,7.522,11.05,12.64,18.921,14.307,10.895,2.326,22.565-.814,32.956-4.071l-1.279-1.279c-2.753,14.539,16.827,20.821,27.838,21.441,15.819.892,31.328-5.389,44.937-12.795l-1.124-.155c6.4,6.552,15.78,8.569,24.62,7.328,10.779-1.512,20.2-7.561,29.2-13.3l-1.435-.814a49.25,49.25,0,0,1-14.927,34.313c-.62.582,0,1.822.853,1.473,10.042-3.683,19.657-8.8,26.675-17.06,6.785-8.026,10.546-18.378,9.383-28.885l-1.279.969c10.236,2.908,20.743-3.838,28.42-10,7.328-5.855,13.182-15.47,8.336-24.814l-.349,1.435c8.53-4.575,19.929-12.407,15.431-23.728-5.079-12.64-20.472-12.64-31.832-11.864-1.357.078-1.357,2.249,0,2.132,10.313-.853,24.426-1.473,29.622,9.654,4.924,10.468-6.475,17.835-14.268,22.022a1.061,1.061,0,0,0-.388,1.4c4.808,9.228-2.481,18.145-9.577,23.5s-15.664,10.624-24.892,8.336c-.543-.116-1.357.31-1.241.969,2.869,21.712-15.548,38.113-34.507,44.239l.892,1.473A48.95,48.95,0,0,0,178,115.023a.96.96,0,0,0-1.435-.814c-14.423,9.305-36.484,21.6-51.528,6.281a.938.938,0,0,0-1.124-.155C112.05,126.81,99.022,132.277,85.375,132.9a43.593,43.593,0,0,1-19.386-3.179c-6.2-2.6-13.454-8.22-11.9-15.819a1.043,1.043,0,0,0-1.279-1.279c-9.46,2.792-19.076,6.01-29.079,4.847-8.1-.969-16.439-5.506-20.161-12.989-4.226-8.569-.078-18.107,6.669-23.961,6.9-6.048,16.245-8.491,24.969-10.507a.882.882,0,0,0,.388-1.473C23.145,55.7,31.753,34.649,44.9,26.08c13.842-9,32.685-8.879,46.139.814a.982.982,0,0,0,1.435-.814c-1.2-16.672,17.447-22.6,30.707-23.845C137.329.917,153.342,3.709,160.786,17.2a1.121,1.121,0,0,0,1.745.194C171.642,6.772,186.8,4.019,200.1,6.384c6.979,1.241,14.229,3.994,18.843,9.654,4.691,5.738,5.7,14.733.931,20.7-.31.426.194.969.582.582Z" transform="translate(0 0)" fill="#096ea5"/>
        <path id="Path_1208" data-name="Path 1208" d="M220.456,37.324c4.885-5,5.2-12.33,2.365-18.533-3.3-7.212-10.779-11.36-18.145-13.376-14.888-4.11-33.189-1.822-43.7,10.43l1.745.233C154.466,1.227,136.088-1.332,120.735.529,107.048,2.158,89.135,9.253,90.57,26.08l1.4-.853C77.271,14.953,56.1,15.3,41.717,26.08c-12.911,9.693-20.006,30.9-7.367,43.7l.388-1.473c-9.693,2.443-20.006,5.04-27.3,12.329-6.165,6.2-9.577,15.354-5.971,23.728,3.257,7.522,11.05,12.64,18.921,14.307,10.895,2.326,22.565-.814,32.956-4.071l-1.279-1.279c-2.753,14.539,16.827,20.821,27.838,21.441,15.819.892,31.328-5.389,44.937-12.795l-1.124-.155c6.4,6.552,15.78,8.569,24.62,7.328,10.779-1.512,20.2-7.561,29.2-13.3l-1.435-.814a49.25,49.25,0,0,1-14.927,34.313c-.62.582,0,1.822.853,1.473,10.042-3.683,19.657-8.8,26.675-17.06,6.785-8.026,10.546-18.378,9.383-28.885l-1.279.969c10.236,2.908,20.743-3.838,28.42-10,7.328-5.855,13.182-15.47,8.336-24.814l-.349,1.435c8.53-4.575,19.929-12.407,15.431-23.728-5.079-12.64-20.472-12.64-31.832-11.864-1.357.078-1.357,2.249,0,2.132,10.313-.853,24.426-1.473,29.622,9.654,4.924,10.468-6.475,17.835-14.268,22.022a1.061,1.061,0,0,0-.388,1.4c4.808,9.228-2.481,18.145-9.577,23.5s-15.664,10.624-24.892,8.336c-.543-.116-1.357.31-1.241.969,2.869,21.712-15.548,38.113-34.507,44.239l.892,1.473A48.95,48.95,0,0,0,178,115.023a.96.96,0,0,0-1.435-.814c-14.423,9.305-36.484,21.6-51.528,6.281a.938.938,0,0,0-1.124-.155C112.05,126.81,99.022,132.277,85.375,132.9a43.593,43.593,0,0,1-19.386-3.179c-6.2-2.6-13.454-8.22-11.9-15.819a1.043,1.043,0,0,0-1.279-1.279c-9.46,2.792-19.076,6.01-29.079,4.847-8.1-.969-16.439-5.506-20.161-12.989-4.226-8.569-.078-18.107,6.669-23.961,6.9-6.048,16.245-8.491,24.969-10.507a.882.882,0,0,0,.388-1.473C23.145,55.7,31.753,34.649,44.9,26.08c13.842-9,32.685-8.879,46.139.814a.982.982,0,0,0,1.435-.814c-1.2-16.672,17.447-22.6,30.707-23.845C137.329.917,153.342,3.709,160.786,17.2a1.121,1.121,0,0,0,1.745.194C171.642,6.772,186.8,4.019,200.1,6.384c6.979,1.241,14.229,3.994,18.843,9.654,4.691,5.738,5.7,14.733.931,20.7-.31.426.194.969.582.582Z" transform="translate(0)" fill="#096ea5"/>
      </g>
      <g id="Group_6" data-name="Group 6" transform="translate(160.35 49.033)">
        <path id="Path_724" data-name="Path 724" d="M86.277.078a25.488,25.488,0,0,1-2.6,22.72c-.969,1.435-2.869,2.714-3.645,4.187-.465.892-.155,2.6-.233,3.567a36.205,36.205,0,0,1-3.063,11.515C70.5,55.793,56.423,65.8,41.224,65.835a.91.91,0,0,0-.892.7C36.882,85.919,19.9,99.14.785,100.613a.8.8,0,0,0,0,1.59C20.6,102.94,38.82,86.035,42.116,67l-.892.7c16.052-.116,30.669-10.7,36.95-25.279a38.077,38.077,0,0,0,2.869-10.507c.31-2.6.194-4.032,1.977-6.126a23.774,23.774,0,0,0,2.947-4.342A23.745,23.745,0,0,0,86.471,0l-.194.078Z" fill="#096ea5"/>
      </g>
      <g id="Group_7" data-name="Group 7" transform="translate(122.057 124.399)">
        <path id="Path_725" data-name="Path 725" d="M.035,8.73c2.288,3.412,8.1,4.963,11.9,5.7a45.918,45.918,0,0,0,15.276-.039C36.481,13,47.88,9.351,52.8.627c.233-.388-.349-.853-.659-.5C45.864,7.761,37.45,11.251,27.835,12.879a46.225,46.225,0,0,1-14.617.349,31.308,31.308,0,0,1-6.746-1.706c-2.132-.853-3.994-2.4-6.165-3.1-.194-.078-.388.155-.271.31Z" fill="#096ea5"/>
      </g>
      <g id="Group_8" data-name="Group 8" transform="translate(48.998 115.503)">
        <path id="Path_726" data-name="Path 726" d="M72.667,19.372A73.31,73.31,0,0,1,28.312,28.6c-7.638-.775-14.5-3.645-19.58-9.577A27.223,27.223,0,0,1,3.459,9.679C2.451,6.616,2.373,3.553,1.714.451a.652.652,0,0,0-1.241,0c-1.822,6.4,1.939,14.384,5.777,19.308A29.277,29.277,0,0,0,25.171,30.383c8.3,1.318,17.215.737,25.473-.775,7.948-1.435,16.323-4.187,22.682-9.422.465-.388-.155-1.124-.659-.814Z" transform="translate(0 0)" fill="#096ea5"/>
      </g>
      <g id="Group_9" data-name="Group 9" transform="translate(197.985 107.952)">
        <path id="Path_727" data-name="Path 727" d="M.022.209A8.045,8.045,0,0,0,.1,2.147c.194.892.427,1.745.7,2.6A23.632,23.632,0,0,0,2.543,9.087c.271.543,1.2.155.969-.426-.543-1.4-1.163-2.753-1.628-4.187A20.388,20.388,0,0,1,1.3,2.419C1.069,1.6.681.945.449.17.41-.063-.016-.063.022.209Z" transform="translate(0 0)" fill="#096ea5"/>
      </g>
      <g id="Group_10" data-name="Group 10" transform="translate(200.522 106.389)">
        <path id="Path_728" data-name="Path 728" d="M.005.57c.5,2.869,1.4,6.591,3.489,8.724.233.233.659,0,.543-.31C3.572,7.548,2.719,6.23,2.138,4.8A25.466,25.466,0,0,1,.858.337C.742-.245-.072-.012.005.57Z" transform="translate(0)" fill="#096ea5"/>
      </g>
      <g id="Group_11" data-name="Group 11" transform="translate(202.271 105.714)">
        <path id="Path_729" data-name="Path 729" d="M.04.779,1.862,5.044A14.711,14.711,0,0,0,3.723,8.689c.233.31.62-.039.582-.349A15.4,15.4,0,0,0,2.831,4.5L.931.275C.66-.345-.193.2.04.779Z" transform="translate(0 0)" fill="#096ea5"/>
      </g>
      <g id="Group_12" data-name="Group 12" transform="translate(206.168 106.32)">
        <path id="Path_730" data-name="Path 730" d="M.058.872c.969,2.094,1.784,4.691,3.257,6.475.233.31.659-.039.582-.349C3.509,4.71,2.036,2.384,1.105.29.756-.369-.252.212.058.872Z" transform="translate(0 0)" fill="#096ea5"/>
      </g>
      <g id="Group_13" data-name="Group 13" transform="translate(232.003 87.925)">
        <path id="Path_731" data-name="Path 731" d="M.046.384,1.4,2.516a11.041,11.041,0,0,0,1.318,1.9c.155.116.427,0,.349-.194A11.048,11.048,0,0,0,1.908,2.245L.473.112c-.155-.271-.62,0-.427.271Z" transform="translate(0 0)" fill="#096ea5"/>
      </g>
      <g id="Group_14" data-name="Group 14" transform="translate(231.647 84.4)">
        <path id="Path_732" data-name="Path 732" d="M.169.885A9.1,9.1,0,0,1,1.8,3.056c.426.737.582,1.59,1.047,2.288A.348.348,0,0,0,3.5,5.189C3.7,3.366,2.108,1.35.867.148a.507.507,0,0,0-.7.737Z" transform="translate(0 0)" fill="#096ea5"/>
      </g>
      <g id="Group_15" data-name="Group 15" transform="translate(232.286 79.777)">
        <path id="Path_733" data-name="Path 733" d="M.035.623C.81,2.91,2.206,5.547,4.416,6.71c.233.116.582-.155.388-.426C4.144,5.353,3.33,4.577,2.671,3.647A13.055,13.055,0,0,1,1.043.351C.81-.269-.2,0,.035.623Z" transform="translate(0 0)" fill="#096ea5"/>
      </g>
      <g id="Group_16" data-name="Group 16" transform="translate(233.481 76.317)">
        <path id="Path_734" data-name="Path 734" d="M.08.981A55.82,55.82,0,0,0,3.608,6.836c.233.271.814.116.659-.271A51.722,51.722,0,0,0,1.2.322C.817-.415-.308.244.08.981Z" transform="translate(0 0)" fill="#096ea5"/>
      </g>
      <g id="Group_17" data-name="Group 17" transform="translate(232.292 69.853)">
        <path id="Path_735" data-name="Path 735" d="M.067.737c1.9,3.179,3.567,7.25,6.281,9.848a.281.281,0,0,0,.465-.271C5.728,6.747,2.9,3.374.92.233.61-.31-.243.194.067.737Z" transform="translate(0 0)" fill="#096ea5"/>
      </g>
      <g id="Group_18" data-name="Group 18" transform="translate(234.352 69.076)">
        <path id="Path_736" data-name="Path 736" d="M.063.817a32.683,32.683,0,0,0,2.6,4.691c.814,1.163,1.667,2.636,2.908,3.334.271.155.659-.078.543-.388-.582-1.4-1.784-2.481-2.637-3.761A30.993,30.993,0,0,1,.954.274C.683-.346-.248.2.063.817Z" transform="translate(0 0)" fill="#096ea5"/>
      </g>
      <g id="Group_19" data-name="Group 19" transform="translate(236.843 68.331)">
        <path id="Path_737" data-name="Path 737" d="M.169,1.135A23.256,23.256,0,0,1,2.65,4.47a22.21,22.21,0,0,0,1.784,3.1.475.475,0,0,0,.775-.31C4.938,4.663,2.728,2.066,1.061.2c-.543-.62-1.435.31-.892.931Z" transform="translate(0 0)" fill="#096ea5"/>
      </g>
      <g id="Group_20" data-name="Group 20" transform="translate(239.533 67.162)">
        <path id="Path_738" data-name="Path 738" d="M.077.792,1.163,2.575A6.2,6.2,0,0,0,2.248,4.126a.439.439,0,0,0,.737-.388,6.11,6.11,0,0,0-.93-1.706L1.007.249C.659-.332-.272.21.077.792Z" transform="translate(0 0)" fill="#096ea5"/>
      </g>
      <g id="Group_21" data-name="Group 21" transform="translate(228.916 90.962)">
        <path id="Path_739" data-name="Path 739" d="M.264,1.108a2.707,2.707,0,0,1,.931,1.163c.155.465.039.931.349,1.318a.461.461,0,0,0,.7,0c.5-.465.194-1.357-.039-1.939A3.428,3.428,0,0,0,.884.1C.225-.326-.356.721.264,1.108Z" transform="translate(0 0)" fill="#096ea5"/>
      </g>
      <g id="Group_22" data-name="Group 22" transform="translate(195.737 117.107)">
        <path id="Path_740" data-name="Path 740" d="M.021.514.874,2.763a4.66,4.66,0,0,0,.892,1.745.34.34,0,0,0,.582-.233,4.234,4.234,0,0,0-.62-1.9C1.417,1.638,1.107.941.758.2.6-.223-.134.088.021.514Z" transform="translate(0 0)" fill="#096ea5"/>
      </g>
      <g id="Group_23" data-name="Group 23" transform="translate(195.595 120.196)">
        <path id="Path_741" data-name="Path 741" d="M.008.759l.31,2.52a7.32,7.32,0,0,0,.5,2.21.482.482,0,0,0,.853-.116,8.675,8.675,0,0,0-.116-2.249L1.171.449C1.055-.326-.108-.016.008.759Z" transform="translate(0 0)" fill="#096ea5"/>
      </g>
      <g id="Group_24" data-name="Group 24" transform="translate(193.153 124.179)">
        <path id="Path_742" data-name="Path 742" d="M.55.421.2,1.972A3.968,3.968,0,0,0,.008,3.329c.078.388.582.31.737.078a3.683,3.683,0,0,0,.5-1.279l.426-1.4C1.907-.005.706-.315.55.421Z" transform="translate(0 0)" fill="#096ea5"/>
      </g>
      <g id="Group_25" data-name="Group 25" transform="translate(120.97 121.231)">
        <path id="Path_743" data-name="Path 743" d="M2.4,2.05,1.315.538a.583.583,0,0,0-1.163,0C-.08,5.113-.313,10.774,1.626,15.078c.116.31.62.155.62-.155-.039-2.4-.62-4.769-.814-7.173A49.761,49.761,0,0,1,1.315.538L.346.965A9.484,9.484,0,0,0,2.168,2.438c.233.155.465-.233.233-.388Z" transform="translate(0 0)" fill="#096ea5"/>
      </g>
      <g id="Group_26" data-name="Group 26" transform="translate(123.486 123.689)">
        <path id="Path_744" data-name="Path 744" d="M0,.407c.155,3.451.426,7.716,2.21,10.779.155.271.7.194.659-.194C2.405,7.425,1.126,4.09.854.407.815-.136-.038-.136,0,.407Z" transform="translate(0 0)" fill="#096ea5"/>
      </g>
      <g id="Group_27" data-name="Group 27" transform="translate(125.709 125.491)">
        <path id="Path_745" data-name="Path 745" d="M.376.466c-.582,3.528-.7,7.871,1.2,11.089.271.465.93.116.853-.349C1.85,7.6,1,4.459,1.617.776,1.733,0,.531-.348.376.466Z" transform="translate(0 0)" fill="#096ea5"/>
      </g>
      <g id="Group_28" data-name="Group 28" transform="translate(150.781 129.088)">
        <path id="Path_746" data-name="Path 746" d="M0,.32c.116,1.939.62,4.808,2.21,6.126a.214.214,0,0,0,.349-.194c-.271-.969-.853-1.784-1.2-2.714A11.371,11.371,0,0,1,.661.32C.622-.107-.037-.107,0,.32Z" transform="translate(0)" fill="#096ea5"/>
      </g>
      <g id="Group_29" data-name="Group 29" transform="translate(153.943 127.664)">
        <path id="Path_747" data-name="Path 747" d="M.019.542,1.066,4.5A11.846,11.846,0,0,0,2.229,7.908a.34.34,0,0,0,.62-.194,11.149,11.149,0,0,0-.814-3.489L.872.309A.442.442,0,0,0,.019.542Z" transform="translate(0 0)" fill="#096ea5"/>
      </g>
      <g id="Group_30" data-name="Group 30" transform="translate(157.262 126.267)">
        <path id="Path_748" data-name="Path 748" d="M.034.465c-.155,2.675.155,6.32,2.21,8.258a.356.356,0,0,0,.582-.349C2.477,7.134,1.818,6.01,1.469,4.769a13.335,13.335,0,0,1-.427-4.3c0-.62-.969-.62-1.008,0Z" transform="translate(0 0)" fill="#096ea5"/>
      </g>
      <g id="Group_31" data-name="Group 31" transform="translate(160.376 124.818)">
        <path id="Path_749" data-name="Path 749" d="M.139.6C-.133,2.923-.171,6.49,1.612,8.273a.414.414,0,0,0,.7-.31,23.284,23.284,0,0,0-.737-3.257A13.264,13.264,0,0,1,1.418.6C1.5-.218.216-.179.139.6Z" transform="translate(0 0)" fill="#096ea5"/>
      </g>
      <g id="Group_32" data-name="Group 32" transform="translate(162.196 123.514)">
        <path id="Path_750" data-name="Path 750" d="M.18.582c-.31,2.365-.388,5.583,1.2,7.522a.387.387,0,0,0,.659-.233A22.832,22.832,0,0,0,1.5,4.614,14.069,14.069,0,0,1,1.381.582C1.42-.194.257-.194.18.582Z" transform="translate(0 0)" fill="#096ea5"/>
      </g>
      <g id="Group_33" data-name="Group 33" transform="translate(164.285 122.181)">
        <path id="Path_751" data-name="Path 751" d="M.223.6C-.01,2.961-.4,6.761,1.115,8.777c.233.271.775.31.853-.116A14.272,14.272,0,0,0,1.58,5.055,21.446,21.446,0,0,1,1.464.6C1.5-.218.3-.179.223.6Z" transform="translate(0 0)" fill="#096ea5"/>
      </g>
      <g id="Group_34" data-name="Group 34" transform="translate(166.468 120.819)">
        <path id="Path_752" data-name="Path 752" d="M.754.292C-.137,2.191-.719,6.65,1.879,7.581a.363.363,0,0,0,.465-.349c0-.969-.659-1.861-.853-2.83A6.375,6.375,0,0,1,1.879.8C2.15.136,1.026-.329.754.292Z" transform="translate(0 0)" fill="#096ea5"/>
      </g>
      <g id="Group_35" data-name="Group 35" transform="translate(168.403 119.624)">
        <path id="Path_753" data-name="Path 753" d="M.836.362C-.056,2.611-.6,5.984,1.146,8a.343.343,0,0,0,.582-.233c0-1.124-.349-2.249-.426-3.373A10.159,10.159,0,0,1,1.8.634.5.5,0,1,0,.836.362Z" transform="translate(0 0)" fill="#096ea5"/>
      </g>
      <g id="Group_36" data-name="Group 36" transform="translate(169.86 120.342)">
        <path id="Path_754" data-name="Path 754" d="M1.588.148A4.515,4.515,0,0,0,.037,3.134c-.116,1.008,0,2.4.93,2.985.233.194.62-.039.62-.349-.039-.814-.465-1.512-.465-2.326A3.677,3.677,0,0,1,2.286.885a.507.507,0,0,0-.7-.737Z" transform="translate(0 0)" fill="#096ea5"/>
      </g>
      <g id="Group_37" data-name="Group 37" transform="translate(171.836 118.895)">
        <path id="Path_755" data-name="Path 755" d="M.62.393A20.767,20.767,0,0,0,0,3.844c0,.582.737.582.931.116A22.157,22.157,0,0,0,1.706.7C1.861.006.775-.3.62.393Z" transform="translate(0 0)" fill="#096ea5"/>
      </g>
      <g id="Group_38" data-name="Group 38" transform="translate(54.314 125.883)">
        <path id="Path_756" data-name="Path 756" d="M0,.19A39.337,39.337,0,0,0,1.787,6.859c.116.233.388.155.349-.078A33.42,33.42,0,0,0,.275.112C.236-.082-.035,0,0,.19Z" transform="translate(0 0)" fill="#096ea5"/>
      </g>
      <g id="Group_39" data-name="Group 39" transform="translate(57.304 127.769)">
        <path id="Path_757" data-name="Path 757" d="M0,.32A24.921,24.921,0,0,0,2.016,9.044c.078.233.388.078.349-.116A59.3,59.3,0,0,1,.659.32.33.33,0,0,0,0,.32Z" transform="translate(0 0)" fill="#096ea5"/>
      </g>
      <g id="Group_40" data-name="Group 40" transform="translate(58.989 128.873)">
        <path id="Path_758" data-name="Path 758" d="M.641.379C-.135,2.938-.445,6.272,1.106,8.6c.155.233.62.194.582-.155C1.416,5.691.873,3.4,1.649.65A.522.522,0,0,0,.641.379Z" transform="translate(0 0)" fill="#096ea5"/>
      </g>
      <g id="Group_41" data-name="Group 41" transform="translate(62.532 131.753)">
        <path id="Path_759" data-name="Path 759" d="M.006.291c0,1.357-.039,2.675.078,3.994a.253.253,0,0,0,.5,0C.7,2.966.627,1.648.665.291.665-.1.006-.1.006.291Z" transform="translate(0 0)" fill="#096ea5"/>
      </g>
      <g id="Group_42" data-name="Group 42" transform="translate(78.262 135.587)">
        <path id="Path_760" data-name="Path 760" d="M.017.606C.6,3.2.987,6.15,2.111,8.593c.078.233.465.116.465-.116C2.5,5.762,1.529,2.971.948.334A.485.485,0,0,0,.017.606Z" transform="translate(0 0)" fill="#096ea5"/>
      </g>
      <g id="Group_43" data-name="Group 43" transform="translate(82.075 134.181)">
        <path id="Path_761" data-name="Path 761" d="M0,.538A46.762,46.762,0,0,0,.973,8.6a.361.361,0,0,0,.7-.078A42.576,42.576,0,0,0,1.128.538C1.051-.16-.074-.2,0,.538Z" transform="translate(0 0)" fill="#096ea5"/>
      </g>
      <g id="Group_44" data-name="Group 44" transform="translate(84.155 134.167)">
        <path id="Path_762" data-name="Path 762" d="M.018.553c-.078,2.985.039,6.863,1.667,9.46a.339.339,0,0,0,.62-.194,37.415,37.415,0,0,0-.737-4.071,25.85,25.85,0,0,1-.388-5.2.582.582,0,0,0-1.163,0Z" transform="translate(0 0)" fill="#096ea5"/>
      </g>
      <g id="Group_45" data-name="Group 45" transform="translate(87.32 133.405)">
        <path id="Path_763" data-name="Path 763" d="M.807.461C-.24,3.679-.55,8.06,1.621,10.891a.509.509,0,0,0,.931-.388C1.854,7.052,1.04,4.338,2.087.849A.669.669,0,0,0,.807.461Z" transform="translate(0 0)" fill="#096ea5"/>
      </g>
      <g id="Group_46" data-name="Group 46" transform="translate(97.531 134.269)">
        <path id="Path_764" data-name="Path 764" d="M.018.606c.814,2.869,1.4,5.971,2.714,8.685.155.271.7.155.659-.155A52.853,52.853,0,0,0,.949.334.485.485,0,0,0,.018.606Z" transform="translate(0 0)" fill="#096ea5"/>
      </g>
      <g id="Group_47" data-name="Group 47" transform="translate(100.651 131.404)">
        <path id="Path_765" data-name="Path 765" d="M0,.64c0,3.218-.039,7.328,1.551,10.2a.392.392,0,0,0,.737-.194A23.8,23.8,0,0,0,1.745,5.99,41.329,41.329,0,0,1,1.4.64.7.7,0,0,0,0,.64Z" transform="translate(0 0)" fill="#096ea5"/>
      </g>
      <g id="Group_48" data-name="Group 48" transform="translate(102.504 130.805)">
        <path id="Path_766" data-name="Path 766" d="M.008.812C.512,3.8.59,7.326,1.83,10.118c.194.427.775.155.814-.233.271-3.024-.853-6.436-1.4-9.422C1.094-.351-.108,0,.008.812Z" transform="translate(0 0)" fill="#096ea5"/>
      </g>
      <g id="Group_49" data-name="Group 49" transform="translate(105.804 128.739)">
        <path id="Path_767" data-name="Path 767" d="M0,.669C.236,4,.119,7.531.934,10.75a.493.493,0,0,0,.969-.116c.349-3.257-.271-6.708-.5-9.964C1.321-.223-.074-.223,0,.669Z" transform="translate(0 0)" fill="#096ea5"/>
      </g>
      <g id="Group_50" data-name="Group 50" transform="translate(108.088 128.75)">
        <path id="Path_768" data-name="Path 768" d="M.472.463c-.659,3.063-.853,7.018.931,9.771a.528.528,0,0,0,.969-.388C1.829,6.667,1.054,4.03,1.713.812,1.907,0,.666-.351.472.463Z" transform="translate(0 0)" fill="#096ea5"/>
      </g>
      <g id="Group_51" data-name="Group 51" transform="translate(111.213 128.051)">
        <path id="Path_769" data-name="Path 769" d="M.061.7c-.194,2.947,0,6.281,1.628,8.84a.422.422,0,0,0,.775-.31C2.039,6.32,1.3,3.645,1.5.7,1.574-.233.1-.233.061.7Z" transform="translate(0 0)" fill="#096ea5"/>
      </g>
      <g id="Group_52" data-name="Group 52" transform="translate(112.748 126.849)">
        <path id="Path_770" data-name="Path 770" d="M0,.582C0,3.761.31,7.405,1.977,10.2a.494.494,0,0,0,.892-.388C2.21,6.669,1.241,3.838,1.2.582a.6.6,0,0,0-1.2,0Z" transform="translate(0 0)" fill="#096ea5"/>
      </g>
      <g id="Group_53" data-name="Group 53" transform="translate(115.169 126.144)">
        <path id="Path_771" data-name="Path 771" d="M.875.433C-.017,2.76-.521,5.978.836,8.226c.233.388.969.271.931-.233-.078-1.163-.388-2.288-.388-3.451A11,11,0,0,1,2.154.821C2.464.007,1.185-.342.875.433Z" transform="translate(0 0)" fill="#096ea5"/>
      </g>
      <g id="Group_54" data-name="Group 54" transform="translate(96.806 133.657)">
        <path id="Path_772" data-name="Path 772" d="M.2.326c-.388.931-.271,2.714.892,3.1A.347.347,0,0,0,1.518,3a9.887,9.887,0,0,1-.5-1.124A1.927,1.927,0,0,1,1.13.558C1.363.016.432-.256.2.326Z" transform="translate(0 0)" fill="#096ea5"/>
      </g>
      <g id="Group_55" data-name="Group 55" transform="translate(97.47 132.189)">
        <path id="Path_773" data-name="Path 773" d="M0,.553A6.022,6.022,0,0,0,.156,1.987a.43.43,0,0,0,.814,0A4.573,4.573,0,0,0,1.164.553c0-.737-1.2-.737-1.163,0Z" transform="translate(0 0)" fill="#096ea5"/>
      </g>
      <g id="Group_56" data-name="Group 56" transform="translate(98.562 133.125)">
        <path id="Path_774" data-name="Path 774" d="M.034.354l.7,1.279a.174.174,0,0,0,.31-.155L.421.121C.3-.15-.122.082.034.354Z" transform="translate(0 0)" fill="#096ea5"/>
      </g>
      <g id="Group_57" data-name="Group 57" transform="translate(97.527 132.884)">
        <path id="Path_775" data-name="Path 775" d="M.487.323c-.543,2.985-.969,6.824.659,9.538a.248.248,0,0,0,.465-.116c0-1.435-.349-2.83-.465-4.265A20.466,20.466,0,0,1,1.379.595C1.456.013.6-.258.487.323Z" transform="translate(0 0)" fill="#096ea5"/>
      </g>
      <g id="Group_58" data-name="Group 58" transform="translate(95.485 133.001)">
        <path id="Path_776" data-name="Path 776" d="M.824.284c-.853,3.1-1.4,7.25.194,10.236a.422.422,0,0,0,.775-.194c-.116-1.551-.582-3.063-.659-4.614A18.28,18.28,0,0,1,1.56.477C1.677.012.94-.221.824.284Z" transform="translate(0 0)" fill="#096ea5"/>
      </g>
    </g>
    <text id="Download_signup_on_the_app" data-name="Download &amp; signup 
on the app" transform="translate(360.82 1964.127)" fill="#096ea5" font-size="21" font-family="ComicSansMS, Comic Sans MS"><tspan x="-92.198" y="0">Download &amp; signup </tspan><tspan x="-50.659" y="28">on the app</tspan></text>
  </g>
</svg>
