<svg xmlns="http://www.w3.org/2000/svg" width="280.663" height="144.321" viewBox="0 0 280.663 144.321">
  <g id="Group_350" data-name="Group 350" transform="translate(-542.669 -2077.275)">
    <text id="Have_fun_chatting_with_your_people" data-name="Have fun chatting 
with your people" transform="translate(686 2144.436)" fill="#096ea5" font-size="20" font-family="ComicSansMS, Comic Sans MS"><tspan x="-86.421" y="0">Have fun chatting </tspan><tspan x="-76.226" y="26">with your people</tspan></text>
    <g id="Group_129" data-name="Group 129" transform="translate(542.669 2077.275)">
      <g id="Group_60" data-name="Group 60" transform="translate(33.202)">
        <path id="Path_777" data-name="Path 777" d="M37.331,45.716c3-15.558,15.2-29.1,30.623-33.134,16.141-4.215,33.986,2.645,43.76,15.962a1.09,1.09,0,0,0,1.838,0,37.107,37.107,0,0,1,61.381,1.031,1.122,1.122,0,0,0,1.48.359c19.055-9.012,44.7-16.858,62.995-1.614,7.577,6.322,12.6,16.769,10.447,26.677-2.107,9.64-10.9,17.441-20.938,17.172a1.1,1.1,0,0,0-.762,1.838c9.505,10,3.632,24.615-5.335,32.551-9.012,8.026-21.028,13-32.6,15.872a96.7,96.7,0,0,1-71.469-9.819,1.092,1.092,0,0,0-1.39.179c-13.406,16.5-33.806,26.274-54.924,27.395-20.131,1.076-48.244-6.277-55.283-27.754-.4-1.3-2.466-.717-2.062.583,7.084,21.745,34.569,30,55.148,29.5,22.463-.583,44.477-10.626,58.735-28.112l-1.39.179A99.027,99.027,0,0,0,179.6,126.689a95.428,95.428,0,0,0,29.457-8.743c8.743-4.215,17.621-9.909,22.6-18.517,4.887-8.429,4.977-19.638-1.973-26.946l-.762,1.883c9.729.269,18.383-6.232,21.925-15.155,3.99-10,.4-21.387-6.591-29.143-18.024-20-48.019-11.882-68.913-1.973l1.435.4a40.178,40.178,0,0,0-32.237-17.755c-12.958-.224-25.243,6.367-32.82,16.724h1.838C103.509,13.568,85.306,6.26,68.447,10.161A43.558,43.558,0,0,0,35.807,45.312c-.179.986,1.3,1.435,1.524.4Z" transform="translate(-5.042 -9.117)" fill="#096ea5"/>
      </g>
      <g id="Group_61" data-name="Group 61" transform="translate(15.225 33.912)">
        <path id="Path_778" data-name="Path 778" d="M46.209,14.263l.4.269h.4l.448-.269a.622.622,0,0,0,.314-.538c-.493-4.349-9.147-4.08-12.151-3.587C28.9,11.3,22.581,15.16,17.559,19.733,7.65,28.745,1.553,44.124,6.26,57.306a1.045,1.045,0,0,0,2.018-.538c-2.421-11.837-.359-23.315,7.891-32.506a40.921,40.921,0,0,1,12.106-9.326,27.692,27.692,0,0,1,7.891-2.825,17.077,17.077,0,0,1,5.649-.045c.986.179,4.17,1.883,4.439,1.838a.2.2,0,0,0-.045.359Z" transform="translate(-4.641 -9.873)" fill="#096ea5"/>
      </g>
      <g id="Group_62" data-name="Group 62" transform="translate(0 77.396)">
        <path id="Path_779" data-name="Path 779" d="M18.545,14.792a25.788,25.788,0,0,1,1.031-2.959c.314-.583-.538-1.39-1.031-.762C11.6,19.679,7.605,31.92,5.678,42.68a86.61,86.61,0,0,0,.717,34.3,1.1,1.1,0,0,0,2.152-.269A46.512,46.512,0,0,1,37.511,36.179c1.166-.493.673-2.376-.538-1.928A48.322,48.322,0,0,0,6.395,76.711L8.5,76.4A85,85,0,0,1,7.74,42.591,88.622,88.622,0,0,1,11.82,27.75c2.062-5.649,5.111-10.581,7.757-15.917l-1.211-.314a15.138,15.138,0,0,1-.448,3.139.322.322,0,0,0,.628.134Z" transform="translate(-4.301 -10.843)" fill="#096ea5"/>
      </g>
      <g id="Group_63" data-name="Group 63" transform="translate(2.272 110.699)">
        <path id="Path_780" data-name="Path 780" d="M4.756,41.909c2.287-2.062,3.228-5.56,4.753-8.2a53.175,53.175,0,0,1,7.174-10.133A36.061,36.061,0,0,1,24.8,16.98c2.914-1.749,6.232-2.421,9.191-3.99.673-.359.269-1.3-.359-1.345-6.681-.717-13.989,5.291-18.159,9.864a49.381,49.381,0,0,0-6.725,9.416c-1.659,3.049-4.439,7.263-4.394,10.85a.241.241,0,0,0,.4.135Z" transform="translate(-4.352 -11.586)" fill="#096ea5"/>
      </g>
      <g id="Group_64" data-name="Group 64" transform="translate(26.849 111.418)">
        <path id="Path_781" data-name="Path 781" d="M4.939,12.377c7.039,19.907,27.8,28.516,47.571,29.368A90.771,90.771,0,0,0,83.178,38.2c8.429-2.645,17.486-6.994,22.6-14.437.448-.628-.448-1.121-.942-.717-7.263,5.784-14.348,10.536-23.4,13.182a88.754,88.754,0,0,1-26.812,3.139c-19.279-.448-40.846-7.891-48.468-27.35-.269-.717-1.48-.448-1.211.359Z" transform="translate(-4.9 -11.602)" fill="#096ea5"/>
      </g>
      <g id="Group_65" data-name="Group 65" transform="translate(138.775 83.65)">
        <path id="Path_782" data-name="Path 782" d="M7.509,41.228c4.125,4.215,10.267,6.994,15.558,9.371a88.729,88.729,0,0,0,17.4,5.694,94.457,94.457,0,0,0,36,.807c11.882-2.062,24.167-6.412,33.672-13.989C118.523,36.431,127.76,22.8,123.1,11.547a.828.828,0,0,0-1.614.224c-.045,6.725-.045,12.509-3.408,18.652a38.828,38.828,0,0,1-12.33,13.137C96.15,50.106,84.493,53.827,73.06,55.441a92.258,92.258,0,0,1-33.806-1.569,95.6,95.6,0,0,1-16.365-5.336c-5.2-2.287-9.819-5.6-14.93-7.936a.394.394,0,0,0-.448.628Z" transform="translate(-7.396 -10.982)" fill="#096ea5"/>
      </g>
      <g id="Group_66" data-name="Group 66" transform="translate(25.689 103.259)">
        <path id="Path_783" data-name="Path 783" d="M5.714,22.057C7.194,20.4,8.539,18.65,9.929,16.9a26.708,26.708,0,0,0,3.452-4.977c.135-.359-.224-.672-.538-.4A24.135,24.135,0,0,0,8.9,16.094c-1.345,1.793-2.735,3.542-3.946,5.38-.314.448.4,1.031.762.583Z" transform="translate(-4.874 -11.42)" fill="#096ea5"/>
      </g>
      <g id="Group_67" data-name="Group 67" transform="translate(28.49 106.118)">
        <path id="Path_784" data-name="Path 784" d="M6.025,23.118c2.825-3.139,5.829-6.9,7.174-10.94.135-.493-.583-.942-.942-.538C9.567,14.913,7.5,18.859,5.038,22.356c-.4.583.493,1.255.986.762Z" transform="translate(-4.937 -11.484)" fill="#096ea5"/>
      </g>
      <g id="Group_68" data-name="Group 68" transform="translate(32.625 112.304)">
        <path id="Path_785" data-name="Path 785" d="M6.151,18.19a8.105,8.105,0,0,1,.986-3.363c.493-.9,1.211-1.659,1.793-2.511a.474.474,0,0,0-.538-.673c-2.421.986-3.408,4.125-3.363,6.546a.561.561,0,0,0,1.121,0Z" transform="translate(-5.029 -11.622)" fill="#096ea5"/>
      </g>
      <g id="Group_69" data-name="Group 69" transform="translate(33.353 117.738)">
        <path id="Path_786" data-name="Path 786" d="M5.844,15.523A22.917,22.917,0,0,0,8.31,12.474a.464.464,0,0,0-.717-.583,18.226,18.226,0,0,0-2.466,3.094c-.314.4.359.942.717.538Z" transform="translate(-5.045 -11.743)" fill="#096ea5"/>
      </g>
      <g id="Group_70" data-name="Group 70" transform="translate(34.925 123.043)">
        <path id="Path_787" data-name="Path 787" d="M5.517,12.758a.451.451,0,0,0,0-.9.448.448,0,0,0,0,.9Z" transform="translate(-5.08 -11.861)" fill="#096ea5"/>
      </g>
      <g id="Group_71" data-name="Group 71" transform="translate(137.586 104.717)">
        <path id="Path_788" data-name="Path 788" d="M8.269,22.066c3.094-3.273,6.636-6.412,9.1-10.178.135-.224-.134-.538-.359-.4-3.587,2.78-6.456,6.5-9.505,9.819-.448.493.314,1.3.762.762Z" transform="translate(-7.37 -11.452)" fill="#096ea5"/>
      </g>
      <g id="Group_72" data-name="Group 72" transform="translate(140.826 106.975)">
        <path id="Path_789" data-name="Path 789" d="M8.509,21.472a91.883,91.883,0,0,1,7.219-9.416c.179-.269-.09-.717-.359-.493a30.257,30.257,0,0,0-7.846,9.326.573.573,0,0,0,.986.583Z" transform="translate(-7.442 -11.503)" fill="#096ea5"/>
      </g>
      <g id="Group_73" data-name="Group 73" transform="translate(143.203 109.409)">
        <path id="Path_790" data-name="Path 790" d="M8.292,20.707c2.287-2.69,5.291-5.47,6.815-8.7.135-.224-.134-.583-.4-.4-2.825,2.2-4.932,5.6-7.084,8.384-.4.493.269,1.211.673.717Z" transform="translate(-7.495 -11.557)" fill="#096ea5"/>
      </g>
      <g id="Group_74" data-name="Group 74" transform="translate(146.251 110.924)">
        <path id="Path_791" data-name="Path 791" d="M8.36,19.943a74.937,74.937,0,0,0,6.77-7.891c.224-.314-.224-.583-.448-.4A74.963,74.963,0,0,0,7.688,19.27c-.4.448.269,1.121.673.673Z" transform="translate(-7.563 -11.591)" fill="#096ea5"/>
      </g>
      <g id="Group_75" data-name="Group 75" transform="translate(149.255 112.47)">
        <path id="Path_792" data-name="Path 792" d="M8.427,19.911c2.511-2.466,5.694-4.887,7.577-7.846.135-.269-.134-.538-.359-.4-2.959,1.928-5.425,5.066-7.891,7.577-.4.448.269,1.121.673.673Z" transform="translate(-7.63 -11.625)" fill="#096ea5"/>
      </g>
      <g id="Group_76" data-name="Group 76" transform="translate(154.664 114.586)">
        <path id="Path_793" data-name="Path 793" d="M8.7,17.215c.807-.762,1.659-1.524,2.466-2.376a13.389,13.389,0,0,0,2.107-2.421.517.517,0,0,0-.717-.673A15.09,15.09,0,0,0,10.223,13.9c-.807.807-1.569,1.7-2.331,2.556a.555.555,0,0,0,.807.762Z" transform="translate(-7.751 -11.672)" fill="#096ea5"/>
      </g>
      <g id="Group_77" data-name="Group 77" transform="translate(172.84 118.588)">
        <path id="Path_794" data-name="Path 794" d="M9.266,20.924c3.094-2.69,6.456-5.38,9.012-8.609.224-.269-.045-.717-.359-.493-3.5,2.242-6.546,5.336-9.55,8.16-.628.583.269,1.48.9.942Z" transform="translate(-8.156 -11.762)" fill="#096ea5"/>
      </g>
      <g id="Group_78" data-name="Group 78" transform="translate(177.673 117.63)">
        <path id="Path_795" data-name="Path 795" d="M9.249,21.188c3-2.78,6.546-5.47,9.012-8.788a.422.422,0,0,0-.583-.583c-3.452,2.242-6.322,5.694-9.236,8.564-.538.538.269,1.3.807.807Z" transform="translate(-8.264 -11.74)" fill="#096ea5"/>
      </g>
      <g id="Group_79" data-name="Group 79" transform="translate(180.797 119.383)">
        <path id="Path_796" data-name="Path 796" d="M9.2,20.953c2.87-2.78,5.784-5.47,8.429-8.429a.428.428,0,0,0-.583-.628c-3.049,2.6-5.784,5.515-8.564,8.34a.508.508,0,0,0,.717.717Z" transform="translate(-8.334 -11.779)" fill="#096ea5"/>
      </g>
      <g id="Group_80" data-name="Group 80" transform="translate(185.307 120.835)">
        <path id="Path_797" data-name="Path 797" d="M9.317,19.444c2.287-2.287,4.573-4.618,6.815-6.994a.381.381,0,0,0-.538-.538c-2.421,2.2-4.708,4.484-6.994,6.815-.493.448.224,1.166.717.717Z" transform="translate(-8.434 -11.812)" fill="#096ea5"/>
      </g>
      <g id="Group_81" data-name="Group 81" transform="translate(190.101 119.513)">
        <path id="Path_798" data-name="Path 798" d="M9.159,20.648c3.049-2.78,6.322-5.425,9.147-8.474a.227.227,0,0,0-.269-.359c-3.273,2.556-6.277,5.56-9.371,8.339-.359.314.135.807.493.493Z" transform="translate(-8.541 -11.782)" fill="#096ea5"/>
      </g>
      <g id="Group_82" data-name="Group 82" transform="translate(196.111 123.793)">
        <path id="Path_799" data-name="Path 799" d="M9.246,14.894a32.418,32.418,0,0,0,3.094-2.466c.269-.224-.09-.717-.4-.493a36.609,36.609,0,0,0-3.094,2.287c-.4.314,0,.986.4.673Z" transform="translate(-8.675 -11.878)" fill="#096ea5"/>
      </g>
      <g id="Group_83" data-name="Group 83" transform="translate(207.734 126.988)">
        <path id="Path_800" data-name="Path 800" d="M9.271,12.666a.359.359,0,1,0,0-.717.359.359,0,0,0,0,.717Z" transform="translate(-8.935 -11.949)" fill="#096ea5"/>
      </g>
      <g id="Group_84" data-name="Group 84" transform="translate(252.787 65.042)">
        <path id="Path_801" data-name="Path 801" d="M10.552,10.953c.717,4.349,2.062,8.384,1.973,12.868A44.633,44.633,0,0,1,9.969,36.6c-.179.4.493.673.673.269,4.08-7.174,5.291-18.966.448-26.139-.179-.314-.583-.135-.538.224Z" transform="translate(-9.939 -10.567)" fill="#096ea5"/>
      </g>
      <g id="Group_85" data-name="Group 85" transform="translate(253.656 66.323)">
        <path id="Path_802" data-name="Path 802" d="M11,15.709a7.025,7.025,0,0,1,1.48-2.87,25.894,25.894,0,0,0,1.883-1.973l-.179-.269c-2.287-.09-3.811,2.87-4.215,4.842-.134.673.9.942,1.031.269Z" transform="translate(-9.959 -10.596)" fill="#096ea5"/>
      </g>
      <g id="Group_86" data-name="Group 86" transform="translate(254.267 67.177)">
        <path id="Path_803" data-name="Path 803" d="M10.853,16.533l2.6-3a6.63,6.63,0,0,0,1.928-2.645l-.314-.269c-.986.314-1.659,1.435-2.331,2.2l-2.645,2.959c-.4.493.314,1.255.762.762Z" transform="translate(-9.972 -10.615)" fill="#096ea5"/>
      </g>
      <g id="Group_87" data-name="Group 87" transform="translate(253.787 69.45)">
        <path id="Path_804" data-name="Path 804" d="M10.561,17.539a22.1,22.1,0,0,0,6.9-6.456.3.3,0,0,0-.448-.359c-2.331,2.063-4.349,4.259-6.86,6.1-.448.314-.045,1.031.4.717Z" transform="translate(-9.962 -10.666)" fill="#096ea5"/>
      </g>
      <g id="Group_88" data-name="Group 88" transform="translate(253.489 75.292)">
        <path id="Path_805" data-name="Path 805" d="M10.179,17.163l3.542-3.273c.628-.538,1.211-1.076,1.793-1.614.359-.4,1.255-1.39.269-.359a30.875,30.875,0,0,0-2.556,3.766c-.807,1.255-1.659,2.556-2.466,3.811l.269.269a11.718,11.718,0,0,0,4.259-3.721l-.135-.09a17.5,17.5,0,0,1-2.869,2.6l-.9.628.852-1.435a56.572,56.572,0,0,1,4.484-6.725l-.269-.224c-2.287,1.883-4.349,4.035-6.5,6.1l.224.269Z" transform="translate(-9.955 -10.796)" fill="#096ea5"/>
      </g>
      <g id="Group_89" data-name="Group 89" transform="translate(253.844 83.273)">
        <path id="Path_806" data-name="Path 806" d="M11.806,12.5a18.156,18.156,0,0,0,3-.986l-1.345,1.793a23.158,23.158,0,0,0-3.5,7.263.185.185,0,0,0,.359.09c1.435-3.452,2.69-6.636,4.977-9.595l-.09-.09a6.207,6.207,0,0,1-3.408,1.255c-.224,0-.224.314,0,.269Z" transform="translate(-9.963 -10.974)" fill="#096ea5"/>
      </g>
      <g id="Group_90" data-name="Group 90" transform="translate(249.675 65.707)">
        <path id="Path_807" data-name="Path 807" d="M9.873,11.021c.673,4.259,2.152,8.295,2.556,12.644a85.5,85.5,0,0,1,.224,11.747c0,.359.628.493.717.09,1.659-7.667,1.3-17.934-2.914-24.749-.179-.359-.628-.09-.583.269Z" transform="translate(-9.87 -10.582)" fill="#096ea5"/>
      </g>
      <g id="Group_91" data-name="Group 91" transform="translate(250.845 63.497)">
        <path id="Path_808" data-name="Path 808" d="M10.209,11.747a23.615,23.615,0,0,0,3.049-.852c.179-.045.179-.4-.045-.359a24.512,24.512,0,0,0-3.139.717.256.256,0,0,0,.134.493Z" transform="translate(-9.896 -10.533)" fill="#096ea5"/>
      </g>
      <g id="Group_92" data-name="Group 92" transform="translate(249.647 64.651)">
        <path id="Path_809" data-name="Path 809" d="M11.291,11.963l-.359-.045.045,1.121.673-.135,2.107-.448c1.166-.269,2.914-.314,3.9-.986.314-.224.314-.762-.09-.852a8.083,8.083,0,0,0-2.735.224,26.936,26.936,0,0,0-3.228.538c-.538.135-1.524.269-1.7.9-.224.9.807.986,1.39.942a.629.629,0,0,0,0-1.255Z" transform="translate(-9.869 -10.559)" fill="#096ea5"/>
      </g>
      <g id="Group_93" data-name="Group 93" transform="translate(249.719 64.772)">
        <path id="Path_810" data-name="Path 810" d="M10.772,13.818A48.308,48.308,0,0,0,15.3,11.4c.4-.269.179-.986-.314-.807a38.525,38.525,0,0,0-4.8,2.2c-.717.314-.09,1.345.583,1.031Z" transform="translate(-9.871 -10.561)" fill="#096ea5"/>
      </g>
      <g id="Group_94" data-name="Group 94" transform="translate(254.653 70.145)">
        <path id="Path_811" data-name="Path 811" d="M9.983,11.12a52.875,52.875,0,0,1,.09,14.572c-.09.448.628.538.762.09A28.723,28.723,0,0,0,10.7,10.941a.371.371,0,0,0-.717.179Z" transform="translate(-9.981 -10.681)" fill="#096ea5"/>
      </g>
      <g id="Group_95" data-name="Group 95" transform="translate(253.719 71.666)">
        <path id="Path_812" data-name="Path 812" d="M12.241,11.248c1.569,6.9.359,13.271-2.242,19.728-.224.493.583.762.852.359,3.811-6.1,4.125-13.54,2.2-20.311a.419.419,0,0,0-.807.224Z" transform="translate(-9.96 -10.715)" fill="#096ea5"/>
      </g>
      <g id="Group_96" data-name="Group 96" transform="translate(255.348 69.253)">
        <path id="Path_813" data-name="Path 813" d="M10.469,11.32c2.152,7.532,1.569,14.617-.448,22.059-.179.538.673.942.942.4,3.452-7.174,3.273-15.379.583-22.732-.224-.673-1.255-.4-1.076.269Z" transform="translate(-9.996 -10.661)" fill="#096ea5"/>
      </g>
      <g id="Group_97" data-name="Group 97" transform="translate(255.053 67.446)">
        <path id="Path_814" data-name="Path 814" d="M11.43,11.249c4.035,9.729,3.408,18.831-1.39,28.2-.224.4.359.942.717.538,6.725-7.757,7.263-20.669,1.614-29.143-.314-.448-1.166-.179-.942.4Z" transform="translate(-9.99 -10.621)" fill="#096ea5"/>
      </g>
      <g id="Group_98" data-name="Group 98" transform="translate(251.858 66.154)">
        <path id="Path_815" data-name="Path 815" d="M15.854,11.167c3.363,12.24.583,23.449-5.873,34.075a.5.5,0,0,0,.807.583c8.474-9.1,10.133-23.539,5.963-34.927a.469.469,0,0,0-.9.269Z" transform="translate(-9.919 -10.592)" fill="#096ea5"/>
      </g>
      <g id="Group_99" data-name="Group 99" transform="translate(249.935 80.953)">
        <path id="Path_816" data-name="Path 816" d="M18.855,11.225c-.045,9.729-3.5,18.024-8.922,25.915a.339.339,0,0,0,.538.4c6.725-6.86,9.55-16.9,9.012-26.319a.314.314,0,0,0-.628,0Z" transform="translate(-9.876 -10.922)" fill="#096ea5"/>
      </g>
      <g id="Group_100" data-name="Group 100" transform="translate(250.082 84.08)">
        <path id="Path_817" data-name="Path 817" d="M19.115,11.261c-.538,9.191-4.394,16.141-9.191,23.718-.179.269.224.538.448.359,6.546-5.874,9.191-15.6,9.281-24.077a.269.269,0,1,0-.538,0Z" transform="translate(-9.879 -10.992)" fill="#096ea5"/>
      </g>
      <g id="Group_101" data-name="Group 101" transform="translate(250.553 80.953)">
        <path id="Path_818" data-name="Path 818" d="M19.776,11.225A35.673,35.673,0,0,1,10,35.392a.445.445,0,0,0,.628.628A30.86,30.86,0,0,0,20.4,11.225a.314.314,0,0,0-.628,0Z" transform="translate(-9.89 -10.922)" fill="#096ea5"/>
      </g>
      <g id="Group_102" data-name="Group 102" transform="translate(247.275 80.035)">
        <path id="Path_819" data-name="Path 819" d="M23.518,11.36C25.222,23.107,16.658,31,9.933,39.248a.476.476,0,0,0,.673.672c8.2-7.084,15.872-17.307,13.63-28.74-.09-.493-.762-.269-.717.179Z" transform="translate(-9.816 -10.902)" fill="#096ea5"/>
      </g>
      <g id="Group_103" data-name="Group 103" transform="translate(242.973 83.951)">
        <path id="Path_820" data-name="Path 820" d="M21.313,11.3A65.554,65.554,0,0,1,9.79,33.4c-.269.359.314.807.583.493A50.169,50.169,0,0,0,22.12,11.522a.419.419,0,0,0-.807-.224Z" transform="translate(-9.72 -10.989)" fill="#096ea5"/>
      </g>
      <g id="Group_104" data-name="Group 104" transform="translate(242.243 82.421)">
        <path id="Path_821" data-name="Path 821" d="M19.74,11.359c-.986,8.16-4.753,14.93-9.954,21.207a.351.351,0,0,0,.493.493c6.232-5.47,9.46-13.585,10.312-21.7.045-.538-.807-.538-.852,0Z" transform="translate(-9.704 -10.955)" fill="#096ea5"/>
      </g>
      <g id="Group_105" data-name="Group 105" transform="translate(240.913 81.015)">
        <path id="Path_822" data-name="Path 822" d="M22.924,11.119c-1.569,10-6.5,17.934-13.137,25.332-.314.359.09.986.493.673,7.936-6.143,12.285-16.1,13.227-25.915.045-.314-.538-.4-.583-.09Z" transform="translate(-9.675 -10.924)" fill="#096ea5"/>
      </g>
      <g id="Group_106" data-name="Group 106" transform="translate(240.689 93.881)">
        <path id="Path_823" data-name="Path 823" d="M21.259,11.453c-2.87,5.829-7.039,9.909-11.478,14.527a.417.417,0,0,0,.538.628c5.38-3.094,9.236-9.147,11.657-14.706.224-.538-.493-.986-.717-.448Z" transform="translate(-9.67 -11.211)" fill="#096ea5"/>
      </g>
      <g id="Group_107" data-name="Group 107" transform="translate(243.096 102.589)">
        <path id="Path_824" data-name="Path 824" d="M14.557,11.458a15.625,15.625,0,0,0-4.8,5.335c-.135.179.135.448.314.269a29.45,29.45,0,0,1,4.708-5.291c.224-.179-.045-.493-.224-.314Z" transform="translate(-9.723 -11.405)" fill="#096ea5"/>
      </g>
      <g id="Group_108" data-name="Group 108" transform="translate(252.641 67.67)">
        <path id="Path_825" data-name="Path 825" d="M9.977,11.164a112.115,112.115,0,0,0,.269,12.285.426.426,0,1,0,.852,0,112.3,112.3,0,0,0,0-12.285.561.561,0,0,0-1.121,0Z" transform="translate(-9.936 -10.626)" fill="#096ea5"/>
      </g>
      <g id="Group_109" data-name="Group 109" transform="translate(247.571 100.849)">
        <path id="Path_826" data-name="Path 826" d="M9.868,11.77a55.377,55.377,0,0,0,.179,7.712.219.219,0,0,0,.4,0,63.308,63.308,0,0,0,.224-7.712.4.4,0,1,0-.807,0Z" transform="translate(-9.823 -11.366)" fill="#096ea5"/>
      </g>
      <g id="Group_110" data-name="Group 110" transform="translate(245.132 102.334)">
        <path id="Path_827" data-name="Path 827" d="M10.638,11.708a11.445,11.445,0,0,0-.673,6.367c.09.448.807.359.762-.09a13.879,13.879,0,0,1,.807-6.053c.224-.538-.672-.762-.9-.224Z" transform="translate(-9.769 -11.399)" fill="#096ea5"/>
      </g>
      <g id="Group_111" data-name="Group 111" transform="translate(242.009 104.584)">
        <path id="Path_828" data-name="Path 828" d="M11.405,11.839a42.116,42.116,0,0,0-1.7,6.187c-.045.4.583.538.762.179a48.339,48.339,0,0,0,1.973-6.1.533.533,0,0,0-1.031-.269Z" transform="translate(-9.699 -11.449)" fill="#096ea5"/>
      </g>
      <g id="Group_112" data-name="Group 112" transform="translate(239.083 106.284)">
        <path id="Path_829" data-name="Path 829" d="M12.965,11.612c-1.838,1.48-3.5,3.9-3.318,6.322a.279.279,0,0,0,.538.09c.762-2.287,1.48-4.215,3.408-5.739.493-.4-.179-1.076-.628-.673Z" transform="translate(-9.634 -11.487)" fill="#096ea5"/>
      </g>
      <g id="Group_113" data-name="Group 113" transform="translate(239.276 109.413)">
        <path id="Path_830" data-name="Path 830" d="M9.907,12.1a.269.269,0,1,0,0-.538.269.269,0,1,0,0,.538Z" transform="translate(-9.638 -11.557)" fill="#096ea5"/>
      </g>
      <g id="Group_114" data-name="Group 114" transform="translate(243.09 99.533)">
        <path id="Path_831" data-name="Path 831" d="M18.643,12.024c.09.673-1.255,2.466-1.659,3.094A24.21,24.21,0,0,1,14.7,18.436a41.186,41.186,0,0,1-4.842,4.439c-.359.314.09.762.448.583a17.422,17.422,0,0,0,6.143-5.425c1.031-1.345,3.452-4.573,2.69-6.412l-.314-.269c-.4-.045-.448,0-.717.269l-.09.269.09.224c.09.269.583.269.538-.09Z" transform="translate(-9.723 -11.337)" fill="#096ea5"/>
      </g>
      <g id="Group_115" data-name="Group 115" transform="translate(239.188 99.301)">
        <path id="Path_832" data-name="Path 832" d="M24.924,11.49c-3.766,6.277-8.967,10.671-15.11,14.527-.359.224-.134.942.314.762C16.9,23.954,22.144,18.215,25.417,11.8c.179-.359-.314-.673-.493-.314Z" transform="translate(-9.636 -11.331)" fill="#096ea5"/>
      </g>
      <g id="Group_116" data-name="Group 116" transform="translate(241.184 94.902)">
        <path id="Path_833" data-name="Path 833" d="M25.842,11.441C22.793,19.915,17.188,25.61,9.925,30.586c-.493.314-.179,1.211.4.942,8.16-3.408,13.989-11.478,16.141-19.907a.328.328,0,0,0-.628-.179Z" transform="translate(-9.681 -11.233)" fill="#096ea5"/>
      </g>
      <g id="Group_117" data-name="Group 117" transform="translate(243.216 96.342)">
        <path id="Path_834" data-name="Path 834" d="M22.6,11.379C19.73,17.79,15.246,22.543,9.821,26.892c-.269.179.09.583.359.448C16.1,23.753,20.358,17.835,23,11.558c.09-.269-.314-.4-.4-.179Z" transform="translate(-9.726 -11.265)" fill="#096ea5"/>
      </g>
      <g id="Group_118" data-name="Group 118" transform="translate(37.843 122.329)">
        <path id="Path_835" data-name="Path 835" d="M6.117,18.791a37.008,37.008,0,0,0,6.1-6.322c.224-.314-.224-.762-.538-.583a35.7,35.7,0,0,0-6.367,6.1.571.571,0,1,0,.807.807Z" transform="translate(-5.145 -11.845)" fill="#096ea5"/>
      </g>
      <g id="Group_119" data-name="Group 119" transform="translate(41.613 124.673)">
        <path id="Path_836" data-name="Path 836" d="M6.2,17.845c.762-1.031,1.524-2.018,2.376-2.959.717-.807,1.614-1.524,2.287-2.376.269-.359-.269-.717-.583-.583-2.107.942-3.9,3.408-4.977,5.38-.314.583.493,1.031.9.538Z" transform="translate(-5.229 -11.897)" fill="#096ea5"/>
      </g>
      <g id="Group_120" data-name="Group 120" transform="translate(45.631 122.937)">
        <path id="Path_837" data-name="Path 837" d="M6.3,19.094c2.511-2.152,4.842-4.349,7.129-6.725.224-.224-.09-.673-.359-.448A93.313,93.313,0,0,0,5.5,18.286c-.538.493.269,1.255.807.807Z" transform="translate(-5.319 -11.859)" fill="#096ea5"/>
      </g>
      <g id="Group_121" data-name="Group 121" transform="translate(50.877 126.839)">
        <path id="Path_838" data-name="Path 838" d="M6.421,15.144l1.255-1.211a4.2,4.2,0,0,0,1.076-1.255.491.491,0,0,0-.673-.673,5.93,5.93,0,0,0-1.255,1.121L5.613,14.337a.571.571,0,1,0,.807.807Z" transform="translate(-5.436 -11.946)" fill="#096ea5"/>
      </g>
      <g id="Group_122" data-name="Group 122" transform="translate(52.264 129.927)">
        <path id="Path_839" data-name="Path 839" d="M6.678,16.788c1.524-1.3,3-2.6,4.394-4.035.314-.314-.09-.942-.493-.673-1.7,1.166-3.273,2.466-4.887,3.766-.673.538.314,1.524.986.942Z" transform="translate(-5.467 -12.015)" fill="#096ea5"/>
      </g>
      <g id="Group_123" data-name="Group 123" transform="translate(75.379 130.963)">
        <path id="Path_840" data-name="Path 840" d="M7.17,20.483a82.926,82.926,0,0,0,7.577-7.8.4.4,0,0,0-.583-.538A82.473,82.473,0,0,0,6.184,19.5a.7.7,0,0,0,.986.986Z" transform="translate(-5.983 -12.038)" fill="#096ea5"/>
      </g>
      <g id="Group_124" data-name="Group 124" transform="translate(79.095 131.427)">
        <path id="Path_841" data-name="Path 841" d="M7.258,19.894c2.511-2.331,5.38-4.573,7.443-7.308.224-.269-.224-.673-.493-.493-2.914,1.793-5.425,4.528-7.936,6.815-.628.583.314,1.569.986.986Z" transform="translate(-6.065 -12.048)" fill="#096ea5"/>
      </g>
      <g id="Group_125" data-name="Group 125" transform="translate(85.332 130.784)">
        <path id="Path_842" data-name="Path 842" d="M7.392,18.282a51.775,51.775,0,0,0,5.2-5.649c.224-.314-.224-.762-.538-.538a51.778,51.778,0,0,0-5.649,5.2.7.7,0,0,0,.986.986Z" transform="translate(-6.205 -12.034)" fill="#096ea5"/>
      </g>
      <g id="Group_126" data-name="Group 126" transform="translate(88.432 132.998)">
        <path id="Path_843" data-name="Path 843" d="M7.321,16.027l2.018-1.614A10.77,10.77,0,0,0,11.177,12.8c.314-.448-.314-.852-.673-.673a7.963,7.963,0,0,0-1.973,1.435L6.469,15.176c-.583.493.269,1.3.852.852Z" transform="translate(-6.274 -12.083)" fill="#096ea5"/>
      </g>
      <g id="Group_127" data-name="Group 127" transform="translate(92.43 134.644)">
        <path id="Path_844" data-name="Path 844" d="M7.089,15.225A37.294,37.294,0,0,0,10.9,12.714a.345.345,0,0,0-.314-.583,42.981,42.981,0,0,0-3.99,2.2c-.538.359-.045,1.211.493.9Z" transform="translate(-6.363 -12.12)" fill="#096ea5"/>
      </g>
      <g id="Group_128" data-name="Group 128" transform="translate(99.364 133.824)">
        <path id="Path_845" data-name="Path 845" d="M7.259,15.264a31.95,31.95,0,0,0,3.094-2.421.434.434,0,0,0-.538-.673,28.393,28.393,0,0,0-3.094,2.242c-.493.359,0,1.255.538.852Z" transform="translate(-6.517 -12.101)" fill="#096ea5"/>
      </g>
    </g>
  </g>
</svg>
