<svg xmlns="http://www.w3.org/2000/svg" width="239.22" height="167.166" viewBox="0 0 239.22 167.166">
  <g id="Group_185" data-name="Group 185" transform="matrix(0.998, -0.07, 0.07, 0.998, -2.041, 16.453)">
    <g id="Group_130" data-name="Group 130" transform="translate(4.158 0)">
      <path id="Path_846" data-name="Path 846" d="M196.667,83.315c13.347,3.619,31.869-2.218,33.075-18.016.467-6.07-1.79-12.8-6.848-16.46-7.821-5.642-18.016-1.6-25.915,1.673a.8.8,0,0,1-.973-1.012c4.669-12.646-.389-28.172-12.179-35.06-11.907-6.887-27.978-3.23-36.422,7.315A.8.8,0,0,1,146.2,21.6c-5.292-11.946-17.627-20.273-30.779-20.04-13.386.234-25.643,9.533-30.118,22.024a.9.9,0,0,1-1.712,0C80.632,11.989,68.375,7.359,57.4,8.526c-5.525.584-11.557,2.179-16.148,5.37-4.942,3.463-8.133,9.923-4.786,15.6.661,1.128-.973,1.984-1.712.973C26.7,19.811,10.863,22.963,4.87,33.9a22.465,22.465,0,0,0-1.6,17.627,27.534,27.534,0,0,0,3.969,7.743,32.978,32.978,0,0,0,3.463,3.891c.35.311,3.891,3.269,4.008,2.49.156-1.128,1.946-.817,1.946.233,0,2.3-2.568,2.529-4.241,1.829C9.229,66.388,6.427,62.458,4.6,59.657.084,52.769-1.433,43.975,1.524,36.193c2.724-7.16,8.794-12.919,16.5-14.047A19.427,19.427,0,0,1,36.467,29.5l-1.712.973c-2.879-4.864-1.712-10.856,1.868-15.02C41.059,10.316,48.3,7.981,54.795,6.931,67.246,4.907,81.916,9.616,85.3,23.118H83.589C88.3,10.2,100.633.705,114.447.044c14.008-.739,27.511,8.016,33.075,20.779l-1.206-.156c8.95-10.934,25.76-14.358,38.173-7.354,12.452,7.082,18.055,23.347,13.074,36.616l-1.012-1.012c8.561-3.5,19.534-7.471,27.822-1.128,5.292,4.008,7.743,11.012,7.277,17.51-1.206,17.277-20.74,23.581-35.176,18.717a.364.364,0,0,1,.195-.7Z" fill="#096ea5"/>
    </g>
    <g id="Group_131" data-name="Group 131" transform="translate(17.713 69.352)">
      <path id="Path_847" data-name="Path 847" d="M183.112,13.379c9.767,11.246,3.269,27.9-7.315,35.955-12.491,9.533-29.534,8.366-41.324-1.673l1.712-.7c.117,6.031-3.23,11.246-8.133,14.592-5.8,4.008-13.035,4.475-19.806,3.152-12.257-2.413-28.133-9.923-31.752-23l1.634.389C67.544,52.33,67.116,70.346,77.077,81.047a1.147,1.147,0,0,1-1.09,1.907,46.916,46.916,0,0,1-31.13-19.612A46.559,46.559,0,0,1,39.1,24.2l1.284,1.284a33.455,33.455,0,0,1-30.312-3.736C4.234,17.737-4.716,6.881,2.989.3A1.085,1.085,0,1,1,4.312,2.017C.46,4.974,2.366,10.577,4.7,13.885a27.326,27.326,0,0,0,10.156,8.288A31.452,31.452,0,0,0,39.8,23.457a1.082,1.082,0,0,1,1.323,1.284,43.944,43.944,0,0,0,5.525,37.55A44.2,44.2,0,0,0,76.61,80.775l-1.128,1.907C64.548,71.2,65.131,51.552,76.766,40.734a.979.979,0,0,1,1.6.428c2.918,11.635,16.421,17.822,27,20.74,6.382,1.79,13.5,2.257,19.573-.895,5.331-2.8,9.261-7.86,9.222-14.047a1,1,0,0,1,1.712-.7,30.879,30.879,0,0,0,37.589,2.062c10.506-7.277,17.16-22.88,8.561-34.087-.506-.623.584-1.44,1.09-.856Z" fill="#096ea5"/>
    </g>
    <g id="Group_132" data-name="Group 132" transform="translate(20.657 66.033)">
      <path id="Path_848" data-name="Path 848" d="M3.626,2.574A10.815,10.815,0,0,1,.24.978C-.149.706-.071-.072.513.005A7.6,7.6,0,0,1,2.381.395a15.175,15.175,0,0,1,1.829.778c.817.389.233,1.634-.584,1.4Z" fill="#096ea5"/>
    </g>
    <g id="Group_133" data-name="Group 133" transform="translate(22.868 67.272)">
      <path id="Path_849" data-name="Path 849" d="M1.687.751A4.227,4.227,0,0,1,.559,2.891a.363.363,0,0,1-.506-.233A4.056,4.056,0,0,1,.481.44C.753-.339,1.959.012,1.687.751Z" fill="#096ea5"/>
    </g>
    <g id="Group_134" data-name="Group 134" transform="translate(0 29.253)">
      <path id="Path_850" data-name="Path 850" d="M13.5.674a1.744,1.744,0,0,1-3.152.467h.934c-5.02,5.6-8.716,12.53-8.872,20.2-.195,7.549,3.269,13.736,8.638,18.756a1.039,1.039,0,0,1-1.245,1.634C3.27,37.641-.076,29.353,0,21.843.079,13.515,4.2,5.694,10.352.208A.661.661,0,0,1,11.4.324l1.751.117c.117-.156.428.039.35.233Z" fill="#096ea5"/>
    </g>
    <g id="Group_135" data-name="Group 135" transform="translate(10.221 68.973)">
      <path id="Path_851" data-name="Path 851" d="M3.556,1.19C2.194,1,2.038,7.338,2.077,8a20.913,20.913,0,0,0,1.284,6.343,25.27,25.27,0,0,0,7.9,11.168c7.977,6.5,17.51,6.926,27.238,8.249,1.09.156.7,1.712-.233,1.79C26.241,36.833,11.8,31.813,4.684,21.813A23.66,23.66,0,0,1,.092,6.054C.248,4.419.365,1.5,1.8.411c.856-.623,1.751-.584,2.1.428a.284.284,0,0,1-.35.35Z" fill="#096ea5"/>
    </g>
    <g id="Group_136" data-name="Group 136" transform="translate(47.01 104.872)">
      <path id="Path_852" data-name="Path 852" d="M3.966,1.323C1.981.934,1.826,9.378,1.9,10.545a28.931,28.931,0,0,0,1.284,7.51A34.312,34.312,0,0,0,12.1,32.3c8.833,8.444,20.079,10.856,31.6,13.113a.915.915,0,0,1-.234,1.79c-13.386-.467-28.289-6.654-36.538-17.472A33.635,33.635,0,0,1,.23,13.5C-.12,10.662-.665.233,3.693,0a.67.67,0,0,1,.584.467l.117.389c.117.272-.156.506-.428.467Z" fill="#096ea5"/>
    </g>
    <g id="Group_137" data-name="Group 137" transform="translate(159.28 117.966)">
      <path id="Path_853" data-name="Path 853" d="M33.919.525c-3.308,5.525-9.689,8.95-15.837,10.234-5.8,1.167-13.347.934-17.938-3.23A.44.44,0,0,1,.571,6.79c5.954,1.6,11.207,3.346,17.471,2.1C24.191,7.685,28.977,4.455,33.374.1a.352.352,0,0,1,.545.428Z" fill="#096ea5"/>
    </g>
    <g id="Group_138" data-name="Group 138" transform="translate(95.517 126.456)">
      <path id="Path_854" data-name="Path 854" d="M63.828.635C57.641,11.647,43.633,18.3,31.376,19a36.6,36.6,0,0,1-19.417-4.2C7.6,12.386.947,7.639.013,2.347A.667.667,0,0,1,1.1,1.686c1.985,1.673,3.23,4.164,5.1,5.992a28.8,28.8,0,0,0,6.887,5.175A34.334,34.334,0,0,0,32,16.744a41.938,41.938,0,0,0,17.744-5.409C55,8.339,59,4.37,63.206.129c.311-.35.856.078.623.506Z" fill="#096ea5"/>
    </g>
    <g id="Group_139" data-name="Group 139" transform="translate(91.631 123.863)">
      <path id="Path_855" data-name="Path 855" d="M5.027,2.294a3.025,3.025,0,0,1-2.918.428A2.869,2.869,0,0,1,.008.581C-.07.192.474-.236.786.153A4.084,4.084,0,0,0,4.833,1.827a.254.254,0,0,1,.195.467Z" fill="#096ea5"/>
    </g>
    <g id="Group_140" data-name="Group 140" transform="translate(89.741 122.505)">
      <path id="Path_856" data-name="Path 856" d="M9.408,6.765C5.945,6.609.926,4.547.031.85A.657.657,0,0,1,1.12.189C2.326,1.356,3.066,2.718,4.505,3.652a10.6,10.6,0,0,0,4.9,1.712c.856.078.895,1.4,0,1.4Z" fill="#096ea5"/>
    </g>
    <g id="Group_141" data-name="Group 141" transform="translate(53.167 94.531)">
      <path id="Path_857" data-name="Path 857" d="M4.813.613a20.935,20.935,0,0,0-2.724,5.02,32.215,32.215,0,0,0-.895,5.136c-.078.545-.973.506-1.051,0C-.557,7.033,1.389,2.559,4.152.107c.35-.311.973.117.662.506Z" fill="#096ea5"/>
    </g>
    <g id="Group_142" data-name="Group 142" transform="translate(49.286 94.031)">
      <path id="Path_858" data-name="Path 858" d="M4.3.685A33.156,33.156,0,0,0,2.118,6.132,37.349,37.349,0,0,1,.795,10.646c-.195.389-.7.117-.739-.233C-.373,6.989,1.767,3.058,3.519.218A.454.454,0,0,1,4.3.685Z" fill="#096ea5"/>
    </g>
    <g id="Group_143" data-name="Group 143" transform="translate(46.497 95.311)">
      <path id="Path_859" data-name="Path 859" d="M2.339.456C1.989,3.063,1.911,6.137.977,8.588A.494.494,0,0,1,0,8.472C-.073,5.826.861,2.946,1.367.339c.117-.506,1.051-.428.973.117Z" fill="#096ea5"/>
    </g>
    <g id="Group_144" data-name="Group 144" transform="translate(44.67 97.21)">
      <path id="Path_860" data-name="Path 860" d="M2.376.931A14.263,14.263,0,0,1,.664,4.161c-.272.35-.7-.039-.662-.389A15.1,15.1,0,0,1,1.248.425.622.622,0,1,1,2.376.931Z" fill="#096ea5"/>
    </g>
    <g id="Group_145" data-name="Group 145" transform="translate(51.401 95.427)">
      <path id="Path_861" data-name="Path 861" d="M5.917.418A74.409,74.409,0,0,0,2.61,11.274c-.778,3.7-.9,7.51-1.79,11.168-.078.272-.545.311-.584,0C-.892,15.088,2.221,6.683,5.373.146a.306.306,0,0,1,.545.272Z" fill="#096ea5"/>
    </g>
    <g id="Group_146" data-name="Group 146" transform="translate(51.236 103.628)">
      <path id="Path_862" data-name="Path 862" d="M4.215.272C1.646,8.015,1.53,15.486,1.257,23.541c0,.35-.584.467-.662.078-1.634-7.7.311-16.3,3.191-23.464a.222.222,0,0,1,.428.117Z" fill="#096ea5"/>
    </g>
    <g id="Group_147" data-name="Group 147" transform="translate(53.879 113.491)">
      <path id="Path_863" data-name="Path 863" d="M2.972.409C1.883,5.662,1.961,11.149.832,16.363c-.078.272-.545.311-.584,0C-.608,11.11.91,5.273,2.35.254a.321.321,0,1,1,.623.156Z" fill="#096ea5"/>
    </g>
    <g id="Group_148" data-name="Group 148" transform="translate(55.838 118.149)">
      <path id="Path_864" data-name="Path 864" d="M2.3.381C1.364,5.245,1.559,10.109.936,14.973c0,.311-.506.428-.584.078C-.582,10.226.508,4.895,1.675.225A.322.322,0,0,1,2.3.381Z" fill="#096ea5"/>
    </g>
    <g id="Group_149" data-name="Group 149" transform="translate(58.212 124.124)">
      <path id="Path_865" data-name="Path 865" d="M.663.243c.545,3.424,1.634,7.238,1.4,10.74a.318.318,0,0,1-.623.078C.313,7.753.391,3.784,0,.321-.037-.029.585-.146.663.243Z" fill="#096ea5"/>
    </g>
    <g id="Group_150" data-name="Group 150" transform="translate(62.106 131.435)">
      <path id="Path_866" data-name="Path 866" d="M.66.17A11.114,11.114,0,0,1,2.022,7.1c-.078.35-.584.233-.584-.078A19.637,19.637,0,0,0,.037.52C-.157.131.465-.22.66.17Z" fill="#096ea5"/>
    </g>
    <g id="Group_151" data-name="Group 151" transform="translate(23.008 86.646)">
      <path id="Path_867" data-name="Path 867" d="M1.7.443A27.068,27.068,0,0,0,1.352,4.8c.039,1.479.467,2.918.506,4.358.039.389-.506.506-.7.195C-.438,6.9-.243,2.817.885.21c.156-.389.856-.195.817.233Z" fill="#096ea5"/>
    </g>
    <g id="Group_152" data-name="Group 152" transform="translate(20.857 81.987)">
      <path id="Path_868" data-name="Path 868" d="M1.6.511A53.266,53.266,0,0,0,1.635,6.62c.117,1.751.506,3.58.117,5.331-.039.272-.467.311-.623.078C-.66,8.916.118,3.9.507.511c.078-.661,1.128-.7,1.09,0Z" fill="#096ea5"/>
    </g>
    <g id="Group_153" data-name="Group 153" transform="translate(17.405 75.877)">
      <path id="Path_869" data-name="Path 869" d="M2.831.706a61.715,61.715,0,0,0-.856,7.082A39.146,39.146,0,0,1,1.7,13.43c-.117.623-.973.506-1.167,0C-.749,9.539.535,4.208,1.7.395A.587.587,0,0,1,2.831.706Z" fill="#096ea5"/>
    </g>
    <g id="Group_154" data-name="Group 154" transform="translate(16.223 67.23)">
      <path id="Path_870" data-name="Path 870" d="M2.34.6c-.156,5.564.428,12.063-1.012,17.471-.117.428-.895.506-1.012,0C-.579,12.544.666,6.163,1.094.6,1.172-.18,2.34-.219,2.34.6Z" fill="#096ea5"/>
    </g>
    <g id="Group_155" data-name="Group 155" transform="translate(15.086 64.015)">
      <path id="Path_871" data-name="Path 871" d="M2,.467c-.078,3.346-.117,6.654-.233,9.961-.117,2.918.078,5.992-.817,8.794a.345.345,0,0,1-.662,0C-.3,16.382.169,13.308.324,10.428c.195-3.308.428-6.615.7-9.961A.487.487,0,0,1,2,.467Z" fill="#096ea5"/>
    </g>
    <g id="Group_156" data-name="Group 156" transform="translate(12.933 62.054)">
      <path id="Path_872" data-name="Path 872" d="M2.244.443c-.272,3.113-.467,6.187-.506,9.3-.078,2.685.311,5.487-.233,8.133-.078.35-.584.311-.7,0C-.869,12.583.454,5.735,1.31.326c.117-.506.973-.389.934.117Z" fill="#096ea5"/>
    </g>
    <g id="Group_157" data-name="Group 157" transform="translate(11.952 64.735)">
      <path id="Path_873" data-name="Path 873" d="M1.007.409c.039,1.323.078,2.646.078,3.969A11.465,11.465,0,0,1,.891,7.841a.339.339,0,0,1-.662,0A11.464,11.464,0,0,1,.034,4.378Q.093,2.393.151.409a.428.428,0,0,1,.856,0Z" fill="#096ea5"/>
    </g>
    <g id="Group_158" data-name="Group 158" transform="translate(9.445 62.779)">
      <path id="Path_874" data-name="Path 874" d="M.791.379A43.879,43.879,0,0,1,.635,6.372a.236.236,0,0,1-.467,0A51.153,51.153,0,0,1,.012.379a.389.389,0,0,1,.778,0Z" fill="#096ea5"/>
    </g>
    <g id="Group_159" data-name="Group 159" transform="translate(17.585 69.325)">
      <path id="Path_875" data-name="Path 875" d="M3.39.371A1.88,1.88,0,0,1,2.223,2.55a1.379,1.379,0,0,1-1.284.117,1.848,1.848,0,0,1-.934-.778.31.31,0,0,1,.35-.35c.272.078.389.195.662.117h.039l.233-.078.35-.117A1.132,1.132,0,0,0,2.418.488.5.5,0,0,1,3.39.371Z" fill="#096ea5"/>
    </g>
    <g id="Group_160" data-name="Group 160" transform="translate(20.002 67.414)">
      <path id="Path_876" data-name="Path 876" d="M.856.414.817.842l-.195.35c-.078.233-.467.156-.506-.039L0,.725.039.3C.117-.17.895-.053.856.414Z" fill="#096ea5"/>
    </g>
    <g id="Group_161" data-name="Group 161" transform="translate(18.806 67.821)">
      <path id="Path_877" data-name="Path 877" d="M5.049,1.213C3.57,1.252,1.7,1.563.263,1.019a.365.365,0,0,1,0-.7C1.7-.227,3.57.085,5.049.124a.545.545,0,0,1,0,1.09Z" fill="#096ea5"/>
    </g>
    <g id="Group_162" data-name="Group 162" transform="translate(18.206 68.72)">
      <path id="Path_878" data-name="Path 878" d="M4.17,1.52A19.7,19.7,0,0,1,.24.664.338.338,0,0,1,.318,0,21.5,21.5,0,0,1,4.443.586c.623.117.35,1.051-.272.934Z" fill="#096ea5"/>
    </g>
    <g id="Group_163" data-name="Group 163" transform="translate(153.499 116.809)">
      <path id="Path_879" data-name="Path 879" d="M3.862,1.41l-.233.078a.4.4,0,0,1-.467-.272C2.812-.029,4.1-.5,4.718.671,5.5,2.15,3.94,5.341,3.59,6.741c-.778,3.035-1.479,6.148-2.529,9.105A.544.544,0,0,1,.01,15.574C.477,13.045,1.216,10.594,1.917,8.1,2.072,7.52,3.823.71,3.746.749c.389-.039.506.584.117.662Z" fill="#096ea5"/>
    </g>
    <g id="Group_164" data-name="Group 164" transform="translate(150.546 118.69)">
      <path id="Path_880" data-name="Path 880" d="M4.363.58C3.819,3.109,3.274,5.639,2.69,8.129c-.545,2.179-.856,4.514-2.023,6.42a.349.349,0,0,1-.662-.156c-.078-2.257.739-4.475,1.323-6.615C1.99,5.249,2.768,2.8,3.468.308A.469.469,0,0,1,4.363.58Z" fill="#096ea5"/>
    </g>
    <g id="Group_165" data-name="Group 165" transform="translate(147.165 121.386)">
      <path id="Path_881" data-name="Path 881" d="M4.632.608C3.581,5.589,2.959,11.231.858,15.939c-.195.428-.895.195-.856-.233C.274,10.569,2.375,5.277,3.7.336a.487.487,0,0,1,.934.272Z" fill="#096ea5"/>
    </g>
    <g id="Group_166" data-name="Group 166" transform="translate(146.153 127.981)">
      <path id="Path_882" data-name="Path 882" d="M2.064.588A49.835,49.835,0,0,1,.819,8.6.42.42,0,0,1,0,8.487C-.038,5.8.741,3,1.13.355,1.247-.268,2.18,0,2.064.588Z" fill="#096ea5"/>
    </g>
    <g id="Group_167" data-name="Group 167" transform="translate(106.882 126.805)">
      <path id="Path_883" data-name="Path 883" d="M4.6.52C3.4,3.088,2.423,6.434.555,8.575A.322.322,0,0,1,.01,8.263,15.018,15.018,0,0,1,1.722,4.372L3.979.17A.358.358,0,0,1,4.6.52Z" fill="#096ea5"/>
    </g>
    <g id="Group_168" data-name="Group 168" transform="translate(103.974 124.652)">
      <path id="Path_884" data-name="Path 884" d="M4.825.571l-2.1,5.72a12.665,12.665,0,0,1-2.14,4.358A.336.336,0,0,1,0,10.415,12.784,12.784,0,0,1,1.518,5.824C2.335,3.956,3.191,2.088,4.047.22c.195-.467.973-.117.778.35Z" fill="#096ea5"/>
    </g>
    <g id="Group_169" data-name="Group 169" transform="translate(102.051 124.581)">
      <path id="Path_885" data-name="Path 885" d="M3.635.525c.039,3.23-.506,7.277-2.879,9.65a.445.445,0,0,1-.739-.428c.428-1.44,1.206-2.763,1.673-4.2A16.943,16.943,0,0,0,2.507.525a.566.566,0,0,1,1.128,0Z" fill="#096ea5"/>
    </g>
    <g id="Group_170" data-name="Group 170" transform="translate(100.149 122.557)">
      <path id="Path_886" data-name="Path 886" d="M3.125.8l-1.09,5.37c-.272,1.44-.35,2.879-1.284,4.047a.385.385,0,0,1-.623-.195c-.389-1.4.195-2.8.545-4.2L1.958.448C2.113-.33,3.32-.019,3.125.8Z" fill="#096ea5"/>
    </g>
    <g id="Group_171" data-name="Group 171" transform="translate(98.146 120.512)">
      <path id="Path_887" data-name="Path 887" d="M2.209.47A18.838,18.838,0,0,1,2.4,6.385c-.195,1.556-.35,3.541-1.6,4.592a.465.465,0,0,1-.778-.311c-.195-1.479.623-3,.856-4.475A19.051,19.051,0,0,0,.964.626C.847-.075,2.092-.269,2.209.47Z" fill="#096ea5"/>
    </g>
    <g id="Group_172" data-name="Group 172" transform="translate(96.247 119.191)">
      <path id="Path_888" data-name="Path 888" d="M2.085.468a17.522,17.522,0,0,1,.233,5.876C2.124,7.783,1.93,9.534.684,10.39a.421.421,0,0,1-.623-.233c-.272-1.284.428-2.451.7-3.7A15.483,15.483,0,0,0,.84.779C.723,0,1.891-.35,2.085.468Z" fill="#096ea5"/>
    </g>
    <g id="Group_173" data-name="Group 173" transform="translate(93.972 115.83)">
      <path id="Path_889" data-name="Path 889" d="M2.375.483C3,3.829,3.309,8.732,1.091,11.612c-.311.428-1.128.35-1.09-.272.117-1.6.739-3.113,1.012-4.708A20.6,20.6,0,0,0,1.091.638C1.013-.1,2.258-.257,2.375.483Z" fill="#096ea5"/>
    </g>
    <g id="Group_174" data-name="Group 174" transform="translate(92.664 115.15)">
      <path id="Path_890" data-name="Path 890" d="M3.216.657a52.251,52.251,0,0,1-.661,5.992c-.272,1.712-.428,3.736-1.634,5.02-.272.272-.817.156-.856-.195C-.208,9.918.453,8.478.8,6.96A42.623,42.623,0,0,0,1.854.657c.117-.856,1.44-.895,1.362,0Z" fill="#096ea5"/>
    </g>
    <g id="Group_175" data-name="Group 175" transform="translate(90.704 113.781)">
      <path id="Path_891" data-name="Path 891" d="M4.554.9l-1.6,5.059A18.339,18.339,0,0,1,1.246,10.43c-.35.506-1.284.35-1.245-.35A17.662,17.662,0,0,1,1.324,5.488L3.114.507C3.464-.388,4.865,0,4.554.9Z" fill="#096ea5"/>
    </g>
    <g id="Group_176" data-name="Group 176" transform="translate(89.013 113.226)">
      <path id="Path_892" data-name="Path 892" d="M4.883.985c-.817,1.79-1.479,3.58-2.14,5.409a17.685,17.685,0,0,1-1.673,4.4.569.569,0,0,1-1.051-.272c-.156-1.79.7-3.658,1.362-5.253A52.147,52.147,0,0,1,3.754.323C4.143-.416,5.233.245,4.883.985Z" fill="#096ea5"/>
    </g>
    <g id="Group_177" data-name="Group 177" transform="translate(88.598 115.229)">
      <path id="Path_893" data-name="Path 893" d="M3.7.85A22.115,22.115,0,0,0,2.029,4,16.785,16.785,0,0,1,.979,6.842.534.534,0,0,1,.006,6.57C-.111,4.469,1.562,1.9,2.691.266,3.119-.356,4.13.227,3.7.85Z" fill="#096ea5"/>
    </g>
    <g id="Group_178" data-name="Group 178" transform="translate(88.932 122.659)">
      <path id="Path_894" data-name="Path 894" d="M10.722,12.72A26.745,26.745,0,0,1,.06.93C-.251.229.722-.393,1.111.307a36.788,36.788,0,0,0,10,11.868c.311.233-.078.7-.389.545Z" fill="#096ea5"/>
    </g>
    <g id="Group_179" data-name="Group 179" transform="translate(90.949 124.342)">
      <path id="Path_895" data-name="Path 895" d="M.262.064C3.375,4.5,7.033,8.353,10.418,12.516c.233.311-.117.662-.389.428C5.982,9.4,2.83,4.773.029.22-.088.064.184-.091.262.064Z" fill="#096ea5"/>
    </g>
    <g id="Group_180" data-name="Group 180" transform="translate(91.878 125.205)">
      <path id="Path_896" data-name="Path 896" d="M1.084.291A23.394,23.394,0,0,0,4.9,5.622c.389.389-.195.934-.623.584A17.6,17.6,0,0,1,.073.875C-.278.213.734-.371,1.084.291Z" fill="#096ea5"/>
    </g>
    <g id="Group_181" data-name="Group 181" transform="translate(130.006 135.51)">
      <path id="Path_897" data-name="Path 897" d="M2.179,1,2.1.569,2.957.452A17.537,17.537,0,0,1,2.14,3.877,14.017,14.017,0,0,1,.934,7.184.5.5,0,0,1,0,6.951,15.324,15.324,0,0,1,.895,3.526,18.7,18.7,0,0,1,2.14.219a.445.445,0,0,1,.778.428l-.234.428A.273.273,0,0,1,2.179,1Z" fill="#096ea5"/>
    </g>
    <g id="Group_182" data-name="Group 182" transform="translate(126.191 133.92)">
      <path id="Path_898" data-name="Path 898" d="M3.5.681C2.687,3.4,2.064,6.284.741,8.775.508,9.2-.037,8.891,0,8.463A44.628,44.628,0,0,1,2.415.409C2.648-.292,3.738-.02,3.5.681Z" fill="#096ea5"/>
    </g>
    <g id="Group_183" data-name="Group 183" transform="translate(122.766 132.542)">
      <path id="Path_899" data-name="Path 899" d="M2.22.425C2.687,3.344,2.726,7.2.664,9.53c-.272.311-.7-.039-.662-.389C.236,7.779.742,6.5,1.014,5.133A16.223,16.223,0,0,0,1.053.581C.936-.081,2.1-.236,2.22.425Z" fill="#096ea5"/>
    </g>
    <g id="Group_184" data-name="Group 184" transform="translate(120.782 133.906)">
      <path id="Path_900" data-name="Path 900" d="M2.959.734a54.892,54.892,0,0,1-2.3,7.315A.359.359,0,0,1,0,7.855,49.334,49.334,0,0,1,1.831.423.585.585,0,0,1,2.959.734Z" fill="#096ea5"/>
    </g>
  </g>
</svg>
