<svg xmlns="http://www.w3.org/2000/svg" width="483.641" height="290.477" viewBox="0 0 483.641 290.477">
  <defs>
    <style>
      .cls-1 {
        fill: #ffdf00;
      }

      .cls-2, .cls-3, .cls-4 {
        fill: none;
        stroke-miterlimit: 10;
      }

      .cls-2 {
        stroke: #fff;
        stroke-linecap: round;
        stroke-width: 2px;
      }

      .cls-3 {
        stroke: #3c3c3b;
      }

      .cls-3, .cls-4 {
        stroke-width: 3px;
      }

      .cls-4 {
        stroke: rgba(0,0,0,0.14);
      }
    </style>
  </defs>
  <g id="Group_347" data-name="Group 347" transform="translate(-738.61 -207.512)">
    <path id="Path_1227" data-name="Path 1227" class="cls-1" d="M4100.621,190.049l-129.474,40.229-25.895-11.56Z" transform="translate(-2891.907 91.827) rotate(-1)"/>
    <path id="Path_1226" data-name="Path 1226" class="cls-1" d="M3997.5,243.226,4106,190.049l-69.192,82.308Z" transform="translate(-2891.907 91.827) rotate(-1)"/>
    <path id="Path_4" data-name="Path 4" class="cls-2" d="M329.806-156.689c99.191,3.49,199.142-7.862,298-2.826" transform="matrix(0.995, -0.105, 0.105, 0.995, 428.554, 653.599)"/>
    <path id="Path_1218" data-name="Path 1218" class="cls-3" d="M352.4,155.323,527.171,132.36,449.353,214l-18.875-13.752-24.825-18.047L527.171,132.36,391.947,173.182Z" transform="translate(687.374 86.483) rotate(-1)"/>
    <path id="Path_1219" data-name="Path 1219" class="cls-3" d="M410.284,188.248c-1.116,11.042-3.884,43.721-3.884,43.721l30.239-25.39" transform="translate(681.103 80.266) rotate(-1)"/>
    <line id="Line_2" data-name="Line 2" class="cls-3" x2="8.724" y2="52.194" transform="translate(1082.283 252.798) rotate(-1)"/>
    <path id="Path_1220" data-name="Path 1220" class="cls-4" d="M410.432,263.4s-14.033,21.687-13.395,48.477" transform="matrix(0.995, -0.105, 0.105, 0.995, 650.727, 113.331)"/>
    <path id="Path_1221" data-name="Path 1221" class="cls-4" d="M451.253,237.657s-14.671,14.514-31.893,61.077" transform="matrix(0.995, -0.105, 0.105, 0.995, 648.498, 116.519)"/>
    <path id="Path_1222" data-name="Path 1222" class="cls-4" d="M68,392.033s15.308-46.563,52.3-77.18,38.909-29.979,66.336-41.46,33.168,5.1,33.168,12.757-7.016,30.617-26.79,34.444-11.441-17.376-5.1-26.152c8.292-11.481,45.287-44.012,87.386-66.336s58.682-28.065,58.682-28.065" transform="matrix(0.995, -0.105, 0.105, 0.995, 705.816, 114.597)"/>
    <path id="Path_1223" data-name="Path 1223" class="cls-4" d="M277.52,266.7s31.255-26.23,76.542-42.176" transform="matrix(0.995, -0.105, 0.105, 0.995, 681.75, 114.318)"/>
    <path id="Path_1224" data-name="Path 1224" class="cls-4" d="M314.641,173.4s-16.584,12.757-47.2,15.308" transform="matrix(0.995, -0.105, 0.105, 0.995, 683.503, 119.998)"/>
    <path id="Path_1225" data-name="Path 1225" class="cls-4" d="M313.969,158.28s-24.876,6.379-80.369,0" transform="matrix(0.995, -0.105, 0.105, 0.995, 687.523, 121.31)"/>
    <path id="Path_1228" data-name="Path 1228" class="cls-1" d="M3984.1,251.087l9.565-3.193,13.407,9.576-25.747,22.286Z" transform="translate(-2891.907 91.827) rotate(-1)"/>
  </g>
</svg>
