<svg xmlns="http://www.w3.org/2000/svg" width="118.537" height="156.936" viewBox="0 0 118.537 156.936">
  <g id="Group_344" data-name="Group 344" transform="translate(0.575 -7.903)">
    <path id="Path_1195" data-name="Path 1195" d="M2.908,0S-5.45,16.785,6.917,42.261c.67.291,10.06-8.808,10.06-8.808a23.4,23.4,0,0,1,6.7-18.327A225.164,225.164,0,0,1,2.908,0Z" transform="translate(29.259 93.546)" fill="#63efce"/>
    <path id="Path_1196" data-name="Path 1196" d="M19.4,0s7.535,19.19-7.481,43.9c-.626.305-5.658-8.819-5.658-8.819S7.508,24.1,0,15.861A213.748,213.748,0,0,0,19.4,0Z" transform="translate(69.63 81.897) rotate(-72)" fill="#63efce"/>
    <path id="Path_1194" data-name="Path 1194" d="M53.594,85.264C27.928,75.5-6.07,28.964.93,0c56,2.929,72,70.295,72,70.295S79.26,95.027,53.594,85.264Z" transform="translate(7.48 21.527)" fill="#63efce"/>
    <g id="Group_340" data-name="Group 340" transform="translate(36.769 177.262) rotate(-103)">
      <g id="Group_339" data-name="Group 339" transform="translate(0 0)">
        <path id="Path_1131" data-name="Path 1131" d="M.886,45.05A118.243,118.243,0,0,1,44.1,11.319a94.779,94.779,0,0,1,28.71-8.328c12.044-1.394,22.476,1.038,34.052,3.9a.814.814,0,0,0,.563-1.525C88.54-4.091,63.987.244,45.5,8.419A113.235,113.235,0,0,0,.1,44.5C-.272,45,.505,45.536.886,45.05Z" transform="translate(51.076)" fill="#3a3a3a"/>
        <path id="Path_1132" data-name="Path 1132" d="M98.5.351C93.615,10.485,89.965,19.6,81.724,27.7A85.2,85.2,0,0,1,57.911,43.832C39.17,52.578,20.7,53.454.544,54.892-.273,54.95-.1,56.1.6,56.235,20.651,60,45.006,53.337,62.721,44.064,78.615,35.742,97.4,19.714,99.614.607,99.695-.082,98.769-.209,98.5.351Z" transform="translate(59.51 6.3)" fill="#3a3a3a"/>
        <path id="Path_1133" data-name="Path 1133" d="M2.069.218C-3.836,8.67,3.629,29.849,15.228,29.64a.827.827,0,0,0,.362-1.591C5.681,23.681-.967,11.521,2.99.7A.526.526,0,0,0,2.069.218Z" transform="translate(130.945 1.083)" fill="#3a3a3a"/>
        <path id="Path_1134" data-name="Path 1134" d="M54.846.039C44.383,3.488,34.4,8.431,24.414,13.055c-7.588,3.513-17.6,6.414-24.171,11.66a.7.7,0,0,0,.573,1.221c8.229-1.5,16.949-7.5,24.492-11C35.312,10.3,45.432,5.914,55.4,1.2,56.17.84,55.611-.215,54.846.039Z" transform="translate(33.039 38.085)" fill="#3a3a3a"/>
        <path id="Path_1135" data-name="Path 1135" d="M.14.46C-.4,3.381.716,6.3,1.976,8.894,3.31,11.645,5.1,15.062,7.553,16.948a.582.582,0,0,0,.853-.721c-1.329-2.652-3.447-4.871-4.818-7.542A20.565,20.565,0,0,1,1.179.419C1.143-.21.24-.077.14.46Z" transform="translate(51.957 44.661)" fill="#3a3a3a"/>
        <path id="Path_1136" data-name="Path 1136" d="M23.036,7.733C20.783-7.433-5.57,1.949,1.07,16.632c2.393,5.3,8.522,7.164,13.843,5.49,6.925-2.179,10.13-9.367,8.433-16.211a.693.693,0,0,0-1.364.241c.736,5.729-.344,11.449-6.068,14.143-4.208,1.98-9.756,1.329-12.629-2.586C-5.761,5.38,18.253-6.553,22.155,7.887A.448.448,0,0,0,23.036,7.733Z" transform="translate(93.934 16.308)" fill="#3a3a3a"/>
        <path id="Path_1137" data-name="Path 1137" d="M12.621.287A11.359,11.359,0,0,0,1.32,4.209a6.769,6.769,0,0,0,2.209,9.926c3.126,1.769,7.007.42,9.32-2.061,3.014-3.228,2.917-7.557.412-11.044-.455-.633-1.379.155-.924.786,2.041,2.828,2.248,6.32-.035,9.084-1.86,2.252-5.2,3.706-7.994,2.349A5.691,5.691,0,0,1,2.422,4.4a10.508,10.508,0,0,1,9.9-3.293C12.858,1.236,13.17.421,12.621.287Z" transform="translate(97.408 20.312)" fill="#3a3a3a"/>
        <path id="Path_1138" data-name="Path 1138" d="M9.618,1.824Q9.6,1.258,9.586.692l.2,1.166q.736-.311,1.471-.621c.723-.3.3-1.291-.394-1.235A14.329,14.329,0,0,0,7.444.6C6.7.854,7.1,2.126,7.869,1.929a8.571,8.571,0,0,1,3.37.165c.046-.483.091-.965.137-1.448a30.692,30.692,0,0,0-9.5.677.774.774,0,0,0,.061,1.525c3.2.6,6.289,1.624,9.539,1.954a.934.934,0,0,0,.41-1.8c-2.321-.881-4.9-.3-7.35-.349-1.02-.021-1.5,1.479-.418,1.833C6.6,5.3,9.238,5.194,11.8,5.57l.183-1.927A21.9,21.9,0,0,1,6.24,2.022q-.217.954-.435,1.9c2.214-.066,4.26-1.1,6.46-1.155Q11.9,1.983,11.539,1.2c-.5.718-3.342.562-4.3.894-.886.308-.652,1.575.084,1.883,1.352.563,3.485,2.252,5.026,1.692a1.054,1.054,0,0,0,.578-1.118l-.01-.122a1.035,1.035,0,0,0-.926-.853c-1.954.044-3.79.774-5.734.824-1.117.028-1.7,1.624-.468,2.051a20.367,20.367,0,0,0,5.931,1.011L11.36,5.4c-1.529.555-3.154.672-4.688,1.232q.551.045,1.1.092l.3.55L7.462,8.461a4.535,4.535,0,0,1,1.7-.247,3.886,3.886,0,0,0,.906-.063c.626-.265.306.542-.133-.3q.141-.657.282-1.316c.4-.338-.186-.135-.67-.109a4.092,4.092,0,0,0-.964.068,1.129,1.129,0,0,0-.9,1.282c.3,1.4,2.943,1.751,4.014,2.154l.489-2.146c-2.629-.316-5.22.361-7.844.044a1.123,1.123,0,0,0-.494,2.163,13.534,13.534,0,0,1,3.96,1.461,1.158,1.158,0,0,0,1.374-.063l.081-.063a1.142,1.142,0,0,0-.082-1.779c-1.056-.952-4.3-.24-5.5.155a1.14,1.14,0,0,0-.376,1.753,2,2,0,0,0,2.4.687c1.084-.362.675-2.085-.379-2.15-.422-.026-1.061-.041-1.352-.4q-.188.88-.377,1.759l1.453-.657a1.164,1.164,0,0,0,.631-1.224A2.585,2.585,0,0,0,4.717,7.6c-.514-.41-1.66-.458-2.042-.919-.044.535-.087,1.072-.132,1.608,1.021-.932,2.535-.636,3.632-1.637A1.159,1.159,0,0,0,5.83,4.7a.8.8,0,0,1-.743-.54L3.941,5.8l.1.012L3.3,4.932c.135-.288.265-.647.394-1a7.46,7.46,0,0,1-2.754.9A1.186,1.186,0,0,0,.011,6.168c.4,3.345,5.67,1.127,3.143-2.331a1.169,1.169,0,0,0-2.036.639C1.007,6.024.688,7.541.577,9.09a1.19,1.19,0,0,0,1.048,1.268c3.052.463,6.256.659,9.183-.484l-1-2.11a10.428,10.428,0,0,1-4.07,1.141c-1.221.033-1.876,1.8-.516,2.253,2.258.759,3.77.4,5.913-.563L9.879,8.655a17.472,17.472,0,0,1-4.493,2.864c-1.367.624-.382,2.66,1,2.1,1.756-.713,3.642-.894,5.406-1.576q-.5-1.048-1-2.1c-1.219.552-2.4,1.12-3.566,1.772A1.016,1.016,0,0,0,8.1,13.555c1.262-.45,2.472-.96,3.691-1.512,1.374-.621.384-2.627-1-2.1-1.759.677-3.645.858-5.408,1.571l1,2.1a19.71,19.71,0,0,0,5-3.189,1.169,1.169,0,0,0-1.253-1.939c-1.486.667-2.5,1.02-4.1.481q-.257,1.127-.516,2.253a13.322,13.322,0,0,0,5.294-1.352c1.382-.619.385-2.652-1-2.11-2.5.977-5.363.665-7.959.277q.524.635,1.048,1.268C3,7.761,3.316,6.243,3.424,4.7l-2.036.639.893.433L1.345,7.1c1.293-.349,4.4-.728,4.222-2.57a1.136,1.136,0,0,0-.733-.878,2.42,2.42,0,0,0-.675-.143A1.16,1.16,0,0,0,3.012,5.15a3.1,3.1,0,0,0,2.023,1.7q-.17-.976-.343-1.949C3.671,5.84,2.16,5.545,1.066,6.55A1.161,1.161,0,0,0,.935,8.157c.535.642,2.423.866,2.517,1.7q.314-.61.631-1.224L2.631,9.3a1.148,1.148,0,0,0-.379,1.759,3.819,3.819,0,0,0,2.869,1.188q-.19-1.075-.379-2.148l.29-.105q-.188.877-.377,1.753a8,8,0,0,1,1.93-.229A8.313,8.313,0,0,0,7.6,11.48c.507-.1.68.255.293-.092L7.812,9.609l-.082.063L9.1,9.609A15.425,15.425,0,0,0,4.629,7.891l-.494,2.164c2.632.311,5.22-.372,7.845-.063a1.115,1.115,0,0,0,.491-2.146c-1.092-.408-2.253-.748-3.3-1.255q.351.423.705.845c-.31.381-.608.807-.908,1.234.876-.268,1.906.209,2.678-.453A1.123,1.123,0,0,0,11.928,6.9c-.777-1.481-4.22-1.138-5.409-.425A1.165,1.165,0,0,0,5.909,7.66c.051.7.69.972,1.278,1.052a8.386,8.386,0,0,0,2.487-.634,21.992,21.992,0,0,0,2.614-.72A1.089,1.089,0,0,0,11.926,5.3a18.35,18.35,0,0,1-5.4-.848q-.232,1.025-.468,2.051C8.012,6.443,9.849,5.7,11.8,5.641l-.926-.855.012.122c.193-.372.384-.744.577-1.118.349-.128-1.189-.707-1.482-.843-.646-.3-1.283-.619-1.944-.889l.084,1.881c1.622-.577,3.963.02,5.067-1.59.382-.56.061-1.6-.728-1.575C10.236.849,8.2,1.89,5.991,1.966,4.947,2,4.425,3.447,5.557,3.868A23.759,23.759,0,0,0,11.8,5.57a.969.969,0,0,0,.183-1.927c-2.388-.336-4.9-.186-7.21-.932q-.208.917-.418,1.835c2.234.033,4.775-.585,6.883.2q.205-.9.412-1.8C8.363,2.873,5.3,1.887,2.083,1.315c.02.507.041,1.016.061,1.525a29.747,29.747,0,0,1,9.1-.746c.934.114,1.056-1.308.137-1.448a9.449,9.449,0,0,0-3.752-.1l.425,1.329a15.305,15.305,0,0,1,3.046-.58L10.7.057,9.263.748a.62.62,0,0,0,.206,1.166,1.407,1.407,0,0,0,1.37-.27.583.583,0,0,0,.147-.685l-.064-.1a.612.612,0,0,0-.614-.318A2.43,2.43,0,0,0,9.3.826C8.754,1.042,9.042,2,9.618,1.824Z" transform="translate(98.174 20.691)" fill="#3a3a3a"/>
        <path id="Path_1139" data-name="Path 1139" d="M2.185,1.2l-.056-.17c.01.194.018.39.026.585l.051-.132A1.12,1.12,0,0,0,.106.706a1.478,1.478,0,0,0,.417,1.7l-.4-.626A2.349,2.349,0,0,0,.635,2.987a.654.654,0,0,0,1.026-.048A3.451,3.451,0,0,0,2.045,1.7l-.339.649a1.088,1.088,0,0,0,.384-.537c.257-.7-.092.1-.318.219l-.9-.193.1.145C1.462,2.743,2.417,1.906,2.185,1.2Z" transform="translate(123.864 5.481)" fill="#3a3a3a"/>
        <path id="Path_1140" data-name="Path 1140" d="M1.822,1.3C1.405,1.5.989,1.7.57,1.9c.376.606,1.578.4,1.328-.423L1.646.648C1.223-.753-.626.422.218,1.318l.371.572A.683.683,0,0,0,1.822,1.3Z" transform="translate(125.621 14.366)" fill="#3a3a3a"/>
        <path id="Path_1141" data-name="Path 1141" d="M1.911,1.307,1.844.731C1.681-.658-.716.156.246,1.482l.339.466A.8.8,0,0,0,1.972,1.3L1.844.731C1.491-.813-.731.4.246,1.482l.387.427A.738.738,0,0,0,1.911,1.307Z" transform="translate(128.525 22.839)" fill="#3a3a3a"/>
        <path id="Path_1142" data-name="Path 1142" d="M.088,1.59c.054.142.264.883.178.448.369,1.879,3.28.618,2.067-.972.259.339-.145-.315-.211-.441A1.127,1.127,0,0,0,.088,1.59Z" transform="translate(132.29 29.37)" fill="#3a3a3a"/>
        <path id="Path_1143" data-name="Path 1143" d="M0,.575A22.48,22.48,0,0,0,3.466,12.457c.463.7,1.494-.156,1-.853A21.651,21.651,0,0,1,.987.4C.946-.244-.029-.056,0,.575Z" transform="translate(57.41 37.043)" fill="#3a3a3a"/>
        <path id="Path_1144" data-name="Path 1144" d="M5.083.217c-.361.5-1.2.435-1.71.713a.578.578,0,0,0-.316.614C3.4,2.765,5.3,3,6.266,3.292c.1-.413.189-.829.285-1.242-1.428.01-2.855.079-4.281.132a.707.707,0,0,0-.311,1.361c1.4.542,2.813,1.056,4.2,1.637L6.49,3.719a18.623,18.623,0,0,1-5.47-.9A.77.77,0,0,0,.486,4.259c2.1.8,4.24,1.542,6.3,2.438q-.032-.761-.068-1.524a5.5,5.5,0,0,1-3.639.152C2.054,5.01,1.469,6.56,2.5,6.9c1.28.422,4.047.417,4.787,1.566Q7.823,7.881,8.358,7.3a20.432,20.432,0,0,0-5.882-1,.873.873,0,0,0-.165,1.738A21.73,21.73,0,0,1,8.079,9.662q.2-.862.394-1.725Q5.8,7.821,3.135,7.71a.924.924,0,0,0-.782,1.5c1.044,1.176,2.891.761,4.266,1.141.053-.595.107-1.188.16-1.782-1.436.329-2.825-.455-3.836.967a.95.95,0,0,0,.053,1.141c1.049,1.181,2.892.758,4.274,1.141q-.04-.87-.077-1.739a13.3,13.3,0,0,1-2.993.5l.573,1.8q2.226-1,4.449-2L8.394,8.637c-1.234.572-2.477,1.123-3.716,1.683l1.283.456c-.631-1.713-.025-3.494-1.384-4.89a.979.979,0,0,0-1.636.288c-1.377,2.632.344,4.19,1.96,6.182.4.494,1.377.107,1.186-.557-.5-1.733-2.293-3.138-1.341-4.958l-1.637.29c.917.942.644,3.2,1.112,4.472A.976.976,0,0,0,5.5,12.06c1.239-.562,2.482-1.112,3.716-1.683a.964.964,0,0,0-.827-1.739c-1.482.667-2.96,1.347-4.439,2.021a.957.957,0,0,0,.573,1.8A15.155,15.155,0,0,0,8,11.787a.953.953,0,0,0-.077-1.739c-.8-.219-3.006-.026-3.5-.581.018.381.035.761.053,1.141.318-.451,2.077-.086,2.627-.214.819-.191,1.112-1.522.16-1.782-.805-.219-3.008-.02-3.515-.583l-.782,1.5q2.671.091,5.342.186A.9.9,0,0,0,8.7,7.988,23.737,23.737,0,0,0,2.476,6.3q-.084.867-.165,1.738A18.7,18.7,0,0,1,7.763,8.9a.864.864,0,0,0,.95-1.357C7.556,5.768,4.889,5.908,3.084,5.325Q2.792,6.111,2.5,6.9a7.436,7.436,0,0,0,4.932-.231.835.835,0,0,0-.068-1.524C5.223,4.455,3.128,3.6,1.02,2.816L.486,4.259a20.2,20.2,0,0,0,5.861.964c.822.031,1.181-1.176.334-1.459C5.258,3.286,3.856,2.739,2.448,2.222c-.041.451-.081.9-.122,1.354C3.751,3.5,5.179,3.441,6.6,3.324a.648.648,0,0,0,.11-1.237c-.392-.1-2.425-.423-2.578-.886l-.27.761C4.62,1.5,5.4,1.634,5.927.809A.515.515,0,0,0,5.083.217Z" transform="translate(51.935 39.854)" fill="#3a3a3a"/>
        <path id="Path_1145" data-name="Path 1145" d="M0,.558C-.02,5.015,2.5,8.75,5.625,11.734c.792.756,2.117-.324,1.321-1.122C4.022,7.687,1.881,4.683,1.259.507,1.155-.185,0-.17,0,.558Z" transform="translate(60.746 48.457)" fill="#3a3a3a"/>
        <path id="Path_1146" data-name="Path 1146" d="M3.981,5.12A27.405,27.405,0,0,1,7.726,12l1.37-.885a44.743,44.743,0,0,1-3.662-4.5A.943.943,0,0,0,3.87,7.622Q4.844,9.8,5.815,11.985q.872-.413,1.744-.829Q6.586,8.975,5.621,6.792L3.957,7.866c1.807,2.22,3.957,3.026,6.432,4.352a1.024,1.024,0,0,0,1.362-1.494C10.989,9.58,9.546,7.681,9.177,6.854l-1.853.881c.549,1.14,1.5,4.134,3.023,4.281,3.344.32-.852-4.619-1.13-5.1-.652-1.148-2.5-.308-1.878.891.875,1.675,2.169,3.055,3.018,4.754q.655-.717,1.311-1.431a19.756,19.756,0,0,0-4.881-.6,1.059,1.059,0,0,0-.465,2.038A17.353,17.353,0,0,0,13.6,13.939c1.184-.064,1.094-2.041-.084-2.087q-2.668-.1-5.34-.206a1.062,1.062,0,0,0-.7,1.912c1.655,1.056,3.359.9,5.182,1.385l.464-2.036q-2.671-.1-5.342-.208l.939.865C7.4,8.645,5.9,3.359,1.627.177a1.035,1.035,0,0,0-1.6,1.018A16.142,16.142,0,0,0,7.678,11.577c.723.384,1.81-.489,1.079-1.184C5.735,7.513,3.116,5.039,2.05.839L.451,1.857C4.21,4.69,5.476,9.6,6.636,13.932a1.081,1.081,0,0,0,.937.865q2.671.106,5.342.208c1.125.044,1.68-1.713.466-2.038-1.565-.415-3.3-.237-4.7-1.135q-.351.956-.7,1.912,2.668.1,5.338.206l-.082-2.085a15.018,15.018,0,0,1-6.175-1.281q-.232,1.018-.466,2.038a18.032,18.032,0,0,1,4.352.468,1.06,1.06,0,0,0,1.309-1.431c-.855-1.7-2.154-3.077-3.032-4.745L7.339,7.8A16.561,16.561,0,0,0,8.672,9.676c.568.73.471.993,1.5.666,1.374-.44.555-.109.369-.86A16.017,16.017,0,0,0,9.177,6.854a1.027,1.027,0,0,0-1.853.881A31.912,31.912,0,0,0,10.2,12.043q.682-.749,1.362-1.494c-2.247-1.2-4.408-1.977-6.08-3.975A1,1,0,0,0,3.817,7.648q1,2.169,2,4.337a.966.966,0,0,0,1.744-.829q-1-2.169-1.993-4.34Q4.786,7.323,4,7.828a58.519,58.519,0,0,0,4,4.489c.642.555,1.55-.329,1.214-1.026A27.356,27.356,0,0,0,4.942,4.3.631.631,0,0,0,3.981,5.12Z" transform="translate(52.565 46.331)" fill="#3a3a3a"/>
        <path id="Path_1147" data-name="Path 1147" d="M.226.769C-1.22,10.591,4.468,19.81,11.45,26.223a1.074,1.074,0,1,0,1.441-1.581C6.253,18.6,1.083,10.2,1.989.935A.886.886,0,0,0,.226.769Z" transform="translate(60.495 33.26)" fill="#3a3a3a"/>
        <path id="Path_1148" data-name="Path 1148" d="M14.513,22.461c.876.891,1.118,2,2.08,2.827.7.6,1.6-.353,1.286-1.087-1.634-3.779-8.669-4.469-12.308-4.8a.809.809,0,0,0-.356,1.557c1.973.652,3.991,1.1,5.959,1.764a.918.918,0,0,0,.842-1.606,66.694,66.694,0,0,1-5.31-4.377l-1.3,1.43A16.931,16.931,0,0,0,9.83,19.9a1.014,1.014,0,0,0,1.117-1.593C7.385,14.063,3.312,10.161,2.19,4.515L.115,5.177q1.789,4,3.578,8a1.141,1.141,0,0,0,2.145-.685A43.174,43.174,0,0,0,3.6,3.553c-.553-1.377-2.626-.385-2.082.99a52.925,52.925,0,0,1,1.79,5.843l2.2-.7A44.706,44.706,0,0,1,2.413.939a1.185,1.185,0,0,0-2.332.41C.411,3.521,1.1,5.621,1.238,7.817Q2.422,7.607,3.6,7.4C3.228,6.073,3.07,4.767,2.7,3.441,2.353,2.22.358,2.065.3,3.536-.01,10.8,4.241,16.448,9.808,20.686q.7-1,1.4-2c-1.26-.908-2.561-1.736-3.823-2.644A1.226,1.226,0,0,0,5.756,17.83a18.836,18.836,0,0,0,8.938,6.734.841.841,0,0,0,.771-1.471c-2.777-2.3-5.594-3.917-7.847-6.841L5.987,18.041c1.26.908,2.561,1.736,3.821,2.645,1.281.926,2.65-1.049,1.4-2-4.8-3.663-8.737-8.582-8.5-14.92l-2.4.1c.38,1.326.547,2.631.929,3.957A1.2,1.2,0,0,0,3.6,7.4C3.457,5.21,2.755,3.1,2.413.939L.08,1.349A47.654,47.654,0,0,0,3.4,10.683c.527,1.168,2.55.591,2.2-.7a57.581,57.581,0,0,0-2-6.427l-2.082.99A40.407,40.407,0,0,1,3.6,12.886L5.745,12.2,2.1,4.233A1.105,1.105,0,0,0,.024,4.9c1.257,6.058,5.4,10.232,9.389,14.713q.558-.8,1.115-1.593A14.363,14.363,0,0,1,6.522,16.57c-.883-.532-2.151.613-1.3,1.43a54.814,54.814,0,0,0,5.75,4.612l.84-1.606c-2-.588-4.039-.957-6.035-1.558L5.42,21c3.248.262,9.407.814,10.886,3.945l1.286-1.089c-.909-.73-1.148-1.767-2.135-2.436C14.816,20.988,13.931,21.869,14.513,22.461Z" transform="translate(57.386 36.058)" fill="#3a3a3a"/>
        <path id="Path_1149" data-name="Path 1149" d="M0,.419C.254,8.365,4.253,18.184,10.272,23.514c.494.437,1.339-.28.995-.842C9.154,19.225,6.637,16.15,4.886,12.46A56.262,56.262,0,0,1,.954.381C.844-.118-.018-.149,0,.419Z" transform="translate(60.329 35.754)" fill="#3a3a3a"/>
        <path id="Path_1150" data-name="Path 1150" d="M10.48,8.407c-2.227-.214-4.312-.868-6.574-.749-.746.04-.769,1.181-.127,1.405a25.924,25.924,0,0,0,3.413.779c.761.153,2.006.685,2.8.438A.922.922,0,0,0,10.521,8.8c-.474-.616-1.9-.59-2.56-.69-.97-.148-2.439-.628-3.4-.244a.928.928,0,0,0-.308,1.428,1.351,1.351,0,0,0,.514.346A.929.929,0,0,0,5.995,8.615C5.506,5.244,2.827,2.621.729.132.444-.206-.19.166.055.568,1.618,3.131,3.728,5.89,4.18,8.934L5.407,7.91l.252.191L5.353,9.53c-.38.152.506.138.725.165.514.063,1.028.138,1.54.214.417.063.843.161,1.265.194.68.051.718.366.255-.13q.151-.7.3-1.407c.323-.137-.453-.087-.633-.1-.558-.058-1.115-.1-1.67-.186a18.246,18.246,0,0,1-2.851-.585q-.064.7-.127,1.405c2.118-.163,4.115.346,6.211.458A.577.577,0,0,0,10.48,8.407Z" transform="translate(60.164 50.789)" fill="#3a3a3a"/>
        <path id="Path_1151" data-name="Path 1151" d="M3.87.781a2.24,2.24,0,0,0-2.9-.4A2.668,2.668,0,0,0,.319,3.693a.616.616,0,0,0,1.117-.049C1.793,2.767,1.642,1.1,3.016,2A.746.746,0,0,0,3.87.781Z" transform="translate(53.79 44.314)" fill="#3a3a3a"/>
        <path id="Path_1152" data-name="Path 1152" d="M27.326.017C17.617,2.562,8.246,6.074.2,12.193a.563.563,0,0,0,.308.978c1.552.152,3.062.385,4.619.474a.5.5,0,0,0,.094-.987c-2.675-.364-3.461.249-1.5-1.673,2.013-1.97,5.737-3.424,8.274-4.6A103.8,103.8,0,0,1,27.484.918C28.042.76,27.9-.133,27.326.017Z" transform="translate(24.229 42.526)" fill="#3a3a3a"/>
        <path id="Path_1153" data-name="Path 1153" d="M29.2.041C17.564,4.9,7.833,13.714.14,23.558c-.527.674.563,1.435,1.089.761A85.723,85.723,0,0,1,29.595.866.457.457,0,0,0,29.2.041Z" transform="translate(0 55.225)" fill="#3a3a3a"/>
        <path id="Path_1154" data-name="Path 1154" d="M.378,4.887c6.88.039,13.709-1.711,20.254-3.7.713-.217.519-1.375-.2-1.155A95.275,95.275,0,0,1,.343,4.039.43.43,0,0,0,.378,4.887Z" transform="translate(2.444 73.717)" fill="#3a3a3a"/>
        <path id="Path_1155" data-name="Path 1155" d="M2.6.5C2.349,2.576.978,4.2.045,6c-.211.4.379.74.685.481A8.932,8.932,0,0,0,3.728.6.569.569,0,0,0,2.6.5Z" transform="translate(19.811 73.774)" fill="#3a3a3a"/>
        <path id="Path_1156" data-name="Path 1156" d="M.558,16.971C14.032,13.247,28.4,9.063,39.935.947c.486-.343-.049-1.186-.57-.883-12.5,7.3-25.617,11.039-39.1,16C-.236,16.248.034,17.116.558,16.971Z" transform="translate(20.511 63.098)" fill="#3a3a3a"/>
        <path id="Path_1157" data-name="Path 1157" d="M.636,6.066C16.559.281,36.765-.8,51.107,9.613c1.1.8,2.319-.936,1.214-1.734C38.382-2.188,15.411-2.1.252,5.257A.448.448,0,0,0,.636,6.066Z" transform="translate(30.677 5.521)" fill="#3a3a3a"/>
        <path id="Path_1158" data-name="Path 1158" d="M.16,1.166A64.754,64.754,0,0,0,7.378,8.253c.7.6,1.706-.519,1.085-1.193A65.791,65.791,0,0,0,1.092.141C.465-.355-.349.569.16,1.166Z" transform="translate(30.43 10.468)" fill="#3a3a3a"/>
        <path id="Path_1159" data-name="Path 1159" d="M.386,1.2A108.861,108.861,0,0,1,12.964,6.085C17.948,8.516,21.244,11.4,25,15.336a.714.714,0,0,0,1.237-.581c-.852-4.078-6.342-7.032-9.662-8.826A53.041,53.041,0,0,0,.658.009C-.034-.108-.268.976.386,1.2Z" transform="translate(36.861 17.127)" fill="#3a3a3a"/>
        <path id="Path_1160" data-name="Path 1160" d="M.626,42.655C16.449,35.908,31.8,18.6,33.539,1.123a1.06,1.06,0,0,0-2.108-.2C29.7,18.871,15.373,33.561.242,41.846A.448.448,0,0,0,.626,42.655Z" transform="translate(71.746 55.806)" fill="#3a3a3a"/>
        <path id="Path_1161" data-name="Path 1161" d="M1.954,10.933A78.529,78.529,0,0,0,1.611.651C1.527-.252,0-.2,0,.715A78.369,78.369,0,0,0,.572,10.989.7.7,0,0,0,1.954,10.933Z" transform="translate(70.922 87.189)" fill="#3a3a3a"/>
        <path id="Path_1162" data-name="Path 1162" d="M1.128,26.6C4.943,20.35,10.69,7.3,6.06.269,5.649-.353,4.73.215,4.824.849,6.182,10.085,3.609,17.56.046,26.029A.618.618,0,0,0,1.128,26.6Z" transform="translate(70.799 62.565)" fill="#3a3a3a"/>
      </g>
      <path id="Path_1163" data-name="Path 1163" d="M1.76,10.407a34.389,34.389,0,0,0,8.226-9.1L8.648.372C7.431,2.355,4.964,3.388,3.6,5.389A14.187,14.187,0,0,0,1.183,11.52l2.039-.361q-.581-1.47-1.168-2.939a1.087,1.087,0,0,0-2.049.361C-.085,11.413.9,14.6,3.786,15.655c.484.178,1.143-.389.817-.894-1.282-1.99-2.525-3.438-2.448-5.974L.1,9.147q.588,1.468,1.178,2.935a1.083,1.083,0,0,0,2.039-.359,11.494,11.494,0,0,1,3.24-7.195C7.7,3.413,9.2,2.746,9.986,1.309,10.478.405,9.2-.542,8.648.372A50.523,50.523,0,0,1,1.106,9.636.506.506,0,0,0,1.76,10.407Z" transform="translate(51.376 35.749)" fill="#3a3a3a"/>
      <path id="Path_1164" data-name="Path 1164" d="M3.7,3.13a1.491,1.491,0,0,1,.646-.995L2.978,1.178a2.063,2.063,0,0,1-.591,1.54c-.751.83.436,1.739,1.24,1.468A3.962,3.962,0,0,0,6.12,1.517C6.4.541,5.228-.53,4.371.294A8.345,8.345,0,0,0,1.833,5.278c.665-.208,1.331-.418,2-.628Q2.94,3.529,2.049,2.405a1.153,1.153,0,0,0-2,.631,5.109,5.109,0,0,0,.43,2.81c.621,1.382,2.505.374,2.067-.983A.5.5,0,0,1,2.7,4.324.646.646,0,0,0,2.49,3.109,1.976,1.976,0,0,0,.474,5.846l2.067-.983A2.793,2.793,0,0,1,2.316,3.25L.309,3.881,2.1,6.12a1.148,1.148,0,0,0,2-.628A6.138,6.138,0,0,1,5.8,1.977Q4.893,1.5,3.986,1.032A1.843,1.843,0,0,1,2.773,2.39l1.24,1.468A3.758,3.758,0,0,0,4.875,1.1.963.963,0,0,0,3.31.539,4.136,4.136,0,0,0,2.156,2.983C2.054,4,3.5,4.08,3.7,3.13Z" transform="translate(55.922 50.003)" fill="#3a3a3a"/>
      <path id="Path_1165" data-name="Path 1165" d="M1.759.142A7.783,7.783,0,0,0,.145,6.53a.932.932,0,0,0,1.66.367,4.149,4.149,0,0,0,.914-3.543,1,1,0,0,0-1.968.079c-.32,2.4-.4,5.811,1.374,7.689a.682.682,0,0,0,1.184-.372,13.213,13.213,0,0,0-.446-3.044,16.152,16.152,0,0,1-.132-4.085L.763,3.7A2.088,2.088,0,0,1,.3,5.841l1.66.369C1.471,4.168,2.942,2.473,2.7.483A.581.581,0,0,0,1.759.142Z" transform="translate(58.704 34.41)" fill="#3a3a3a"/>
      <path id="Path_1166" data-name="Path 1166" d="M.362,1.376a5.785,5.785,0,0,1,1.585,1.26A12.567,12.567,0,0,0,3.165,4.059.6.6,0,0,0,4.1,3.626C4.051,2.043,2.559.783,1.256.1.386-.357-.523.88.362,1.376Z" transform="translate(67.097 57.293)" fill="#3a3a3a"/>
      <path id="Path_1167" data-name="Path 1167" d="M.336,1.147A48.307,48.307,0,0,0,10.206.83a.4.4,0,0,0-.031-.782C6.957-.139,3.635.279.408.38-.073.395-.168,1.134.336,1.147Z" transform="translate(76.89 63.853)" fill="#3a3a3a"/>
      <path id="Path_1168" data-name="Path 1168" d="M.476,4.442A52.152,52.152,0,0,0,14.954,1.067c.567-.232.27-1.229-.333-1.044A107.8,107.8,0,0,1,.332,3.628C-.2,3.714-.05,4.5.476,4.442Z" transform="translate(88.824 59.799)" fill="#3a3a3a"/>
      <path id="Path_1169" data-name="Path 1169" d="M.371,1.879A63.9,63.9,0,0,0,17.1.837.424.424,0,0,0,16.949,0C11.433.446,5.986.834.451,1.036-.076,1.056-.189,1.842.371,1.879Z" transform="translate(76.869 65.404)" fill="#3a3a3a"/>
      <path id="Path_1170" data-name="Path 1170" d="M.5,2.249A27.933,27.933,0,0,0,6.981,1.011c.567-.193.257-1.12-.32-1C4.551.451,2.469,1,.346,1.4A.434.434,0,0,0,.5,2.249Z" transform="translate(95.791 63.394)" fill="#3a3a3a"/>
      <path id="Path_1171" data-name="Path 1171" d="M.318.979a5.47,5.47,0,0,0,3.77.115C4.5.953,4.318.358,3.95.309,2.819.152,1.679.106.542,0A.508.508,0,0,0,.318.979Z" transform="translate(77.441 69.045)" fill="#3a3a3a"/>
      <path id="Path_1172" data-name="Path 1172" d="M.375,2.613A64.112,64.112,0,0,0,18.793.854c.529-.133.4-.959-.148-.843A77.084,77.084,0,0,1,.455,1.76C-.092,1.747-.179,2.587.375,2.613Z" transform="translate(82.414 67.269)" fill="#3a3a3a"/>
      <path id="Path_1173" data-name="Path 1173" d="M.336.766a23.2,23.2,0,0,0,4.9.361A.393.393,0,0,0,5.3.378,23.2,23.2,0,0,0,.408,0,.385.385,0,0,0,.336.766Z" transform="translate(78.237 71.681)" fill="#3a3a3a"/>
      <path id="Path_1174" data-name="Path 1174" d="M.323,1.13A71.775,71.775,0,0,0,7.516.7a.352.352,0,0,0-.028-.7,71.98,71.98,0,0,0-7.195.4C-.114.436-.091,1.146.323,1.13Z" transform="translate(88.341 71.392)" fill="#3a3a3a"/>
      <path id="Path_1175" data-name="Path 1175" d="M.251.781c2.909.843,6.394,1.456,9.389.758.418-.1.44-.771-.031-.792C6.444.609,3.558.726.427.009-.011-.09-.181.656.251.781Z" transform="translate(76.75 74.499)" fill="#3a3a3a"/>
      <path id="Path_1176" data-name="Path 1176" d="M.055.7a1.437,1.437,0,0,0,1.776.817A.426.426,0,0,0,1.8.674,2.083,2.083,0,0,1,.9.152C.5-.22-.2.141.055.7Z" transform="translate(76.281 76.782)" fill="#3a3a3a"/>
      <path id="Path_1177" data-name="Path 1177" d="M.391.947A22.847,22.847,0,0,0,3.682.838.392.392,0,0,0,3.65.066,22.206,22.206,0,0,0,.475.056C-.092.069-.189.95.391.947Z" transform="translate(80.196 78.087)" fill="#3a3a3a"/>
      <path id="Path_1178" data-name="Path 1178" d="M.332,1.044a7.731,7.731,0,0,0,2.724.7c.438-.013.768-.583.323-.873A7.929,7.929,0,0,0,.568.011C-.033-.113-.228.844.332,1.044Z" transform="translate(75.189 79.509)" fill="#3a3a3a"/>
      <path id="Path_1179" data-name="Path 1179" d="M.945,2.6C1.543,1.93,2.362,1.445,2.91.746A.482.482,0,0,0,2.437,0,3.542,3.542,0,0,0,.078,1.995.53.53,0,0,0,.945,2.6Z" transform="translate(61.064 28.157)" fill="#3a3a3a"/>
      <path id="Path_1180" data-name="Path 1180" d="M.695,13.252c2.49-2.276,5.1-4.362,7.761-6.434,2.631-2.047,5.625-3.77,8.088-6a.464.464,0,0,0-.5-.769C10.121,2.879,4.92,8.191.141,12.6-.262,12.972.286,13.626.695,13.252Z" transform="translate(64.696 14.043)" fill="#3a3a3a"/>
      <path id="Path_1181" data-name="Path 1181" d="M.651,6.619C1.827,5.585,3.014,4.551,4.24,3.574S6.846,1.793,8,.746A.425.425,0,0,0,7.544.041C4.759,1.289,2.171,3.785.12,6-.226,6.371.244,6.978.651,6.619Z" transform="translate(59.226 21.131)" fill="#3a3a3a"/>
      <path id="Path_1182" data-name="Path 1182" d="M.691,7.575A70.125,70.125,0,0,0,9.867.685C10.158.4,9.855-.173,9.458.051a70.791,70.791,0,0,0-9.3,6.893C-.267,7.287.259,7.87.691,7.575Z" transform="translate(68.431 12.359)" fill="#3a3a3a"/>
      <path id="Path_1183" data-name="Path 1183" d="M.788,4.194A15.981,15.981,0,0,0,4.639.657.417.417,0,0,0,4.122.046a16.01,16.01,0,0,0-3.97,3.4A.491.491,0,0,0,.788,4.194Z" transform="translate(56.858 21.957)" fill="#3a3a3a"/>
      <path id="Path_1184" data-name="Path 1184" d="M.724,6.3A65.436,65.436,0,0,0,8.193.719c.311-.295-.016-.9-.43-.665a65.854,65.854,0,0,0-7.6,5.59C-.281,5.993.274,6.621.724,6.3Z" transform="translate(61.96 15.272)" fill="#3a3a3a"/>
      <path id="Path_1185" data-name="Path 1185" d="M.641,4.761c.848-.731,1.68-1.494,2.57-2.174S5.142,1.413,5.974.686c.268-.234.069-.781-.315-.672A12.367,12.367,0,0,0,.077,4.247C-.195,4.595.313,5.045.641,4.761Z" transform="translate(54.835 19.012)" fill="#3a3a3a"/>
      <path id="Path_1186" data-name="Path 1186" d="M.026.274A28.967,28.967,0,0,0,11.563,24.968c.789.591,1.672-.67.878-1.254A28.038,28.038,0,0,1,.649.333C.655-.066.043-.132.026.274Z" transform="translate(134.435 2.845)" fill="#3a3a3a"/>
      <path id="Path_1187" data-name="Path 1187" d="M.032.357c-.5,8.491,4.818,17.2,11.155,22.459.67.555,1.431-.55.772-1.1C5.32,16.127,1.828,8.843.833.324A.406.406,0,0,0,.032.357Z" transform="translate(137.659 2.682)" fill="#3a3a3a"/>
      <path id="Path_1188" data-name="Path 1188" d="M.052.35c-.6,6.92,4.021,14.874,9.631,18.7.527.361,1.29-.394.784-.86a29.546,29.546,0,0,1-6.625-7.949C2.166,7.074,1.632,3.76.843.319A.4.4,0,0,0,.052.35Z" transform="translate(140.804 2.857)" fill="#3a3a3a"/>
      <path id="Path_1189" data-name="Path 1189" d="M0,.327C-.138,6.613,2.887,14.29,8.965,17.066c.5.231.756-.474.412-.786C4.439,11.821.863,7.426.751.4.744-.075.016-.16,0,.327Z" transform="translate(144.04 3.041)" fill="#3a3a3a"/>
      <path id="Path_1190" data-name="Path 1190" d="M0,.449c.265,5.223,2.957,11.664,7.626,14.46.446.269,1.006-.269.636-.7-1.8-2.1-3.675-3.762-5.021-6.253A24.121,24.121,0,0,1,.768.313C.684-.2-.024-.037,0,.449Z" transform="translate(146.61 2.8)" fill="#3a3a3a"/>
      <path id="Path_1191" data-name="Path 1191" d="M.03.345A10.653,10.653,0,0,0,4.774,9.523c.507.295,1.2-.323.74-.81A18.577,18.577,0,0,1,2.364,4.972,19.556,19.556,0,0,1,.811.314.4.4,0,0,0,.03.345Z" transform="translate(150.393 4.511)" fill="#3a3a3a"/>
      <path id="Path_1192" data-name="Path 1192" d="M.11.252C-.49,2.4,1.475,5.39,3.294,6.4c.4.224.952-.249.585-.641A12.127,12.127,0,0,1,1.826,3.155c-.493-.939-.539-2-.982-2.934A.4.4,0,0,0,.11.252Z" transform="translate(153.416 4.984)" fill="#3a3a3a"/>
      <path id="Path_1193" data-name="Path 1193" d="M0,.385A3.085,3.085,0,0,0,2.054,3.376c.349.077.506-.39.325-.624-.282-.366-.652-.642-.921-1.021A4,4,0,0,1,.877.35C.77-.1-.019-.142,0,.385Z" transform="translate(155.98 5.244)" fill="#3a3a3a"/>
    </g>
    <path id="Path_1197" data-name="Path 1197" d="M0,0A98.416,98.416,0,0,0,22.152,46.561" transform="matrix(0.999, 0.035, -0.035, 0.999, 1.792, 42.594)" fill="none" stroke="#3a3a3a" stroke-linecap="square" stroke-width="1"/>
    <path id="Path_1198" data-name="Path 1198" d="M0,0A79.018,79.018,0,0,0,17.786,37.384" transform="matrix(1, 0.017, -0.017, 1, 0.652, 51.049)" fill="none" stroke="#3a3a3a" stroke-linecap="square" stroke-width="1"/>
  </g>
</svg>
