<svg xmlns="http://www.w3.org/2000/svg" width="549.239" height="242.672" viewBox="0 0 549.239 242.672">
  <path id="Path_1206" data-name="Path 1206" d="M82.067,4.607c-1.952,0-21.633-.516-23.589-.64-1.829-.118-2.628-.623-4.45-.756-6.587-.479-13.658.076-20.292.02a23.983,23.983,0,0,0-9.013,1.794c-3.048,1.232-3.942,2.349-5.757,4.221a24.9,24.9,0,0,0-4.129,4.918c-1.59,3.165-.877,4.328-1.826,7.515-.563,1.89-1.461,1.191-1.546,3.226-.061,1.557.311,3.033-.109,4.578-.945,3.466-1.819,6.324-1.737,9.921.116,5.027-2.027,9.666-1.959,14.7.113,8.538.027,17.081.017,25.621C7.671,88.644,5.756,97.11,5.756,106.06v49.3c0,6.662.44,13.143-1.491,19.6-.915,3.059.14,6.078-.328,9.15-.246,1.607-1.225,2.826-1.594,4.35-.549,2.266-.075,4.356-.328,6.612-.369,3.311-2.082,6.237-2.013,9.618.058,2.778.058,5.562,0,8.338-.116,5.732,4.3,11.56,11.8,14.9,7.535,3.361,18.268,6.028,27.124,7.691,10.044,1.883,19.886,3,30.25,4.287,5.607.7,11.119-.181,16.715.213,6.894.486,12.671,1.311,19.763,1.284,14.832-.057,29.667,0,44.5,0H318.816c6.75,0,13.514-.1,20.265-.028,6.286.065,12.078,1.326,18.412,1.282,15.951-.115,31.916-.028,47.867-.028h79.553c10.538,0,20.155.377,30.24-1.565,9.235-1.779,19.985-4.1,24.52-10.182,2.3-3.076,2.409-7.117,3.331-10.367.8-2.826-.242-5.7.328-8.543,1.536-7.667,6.054-15.015,5.9-22.878-.147-7.768-.075-15.54-.044-23.307a31.2,31.2,0,0,0-1.491-10.341c-1.5-4.6-.427-9.742-.427-14.423,0-18.627-1.065-37.192-5.334-55.557-1.819-7.816-.532-16.23-.437-24.132.048-3.716-1.409-6.527-2.01-10.141-.7-4.162.1-8.76.1-12.953,0-6.8.444-13.254-1.938-19.844-1.45-4.006-7.378-5.6-13.487-7.35a143.089,143.089,0,0,0-21-4.589,61.877,61.877,0,0,0-7.849-.248c-4.129,0-7.392-.771-11.415-1.108-6.457-.54-13.047-1.417-19.592-1.369-9.218.068-17.845.12-26.868-.925-8.668-1-17.627.124-26.36-.209-9.757-.37-18.988-1.315-28.841-1.258C372.877,1.4,364.212.072,354.817.1c-8.146.024-16.292-.009-24.435,0-3.744,0-7.583-.187-11.316-.046-3.795.144-7,1.13-10.764,1.334-7.464.4-15.217-.2-22.7-.094-7.068.1-13.4,1.285-20.613,1.25-7.32-.035-13.548.716-20.626,1.293-5.058.411-30.073.967-35.185.967" transform="translate(549.239 242.672) rotate(180)" fill="#ffdf00"/>
</svg>
