<svg xmlns="http://www.w3.org/2000/svg" width="545.471" height="252.529" viewBox="0 0 545.471 252.529">
  <path id="Path_1204" data-name="Path 1204" d="M81.5,4.794c-1.939,0-21.481-.535-23.423-.666-1.817-.122-2.613-.646-4.423-.784-6.538-.5-13.564.079-20.153.02a22.821,22.821,0,0,0-8.948,1.867c-3.027,1.282-3.918,2.444-5.718,4.393a25.486,25.486,0,0,0-4.1,5.115c-1.579,3.3-.871,4.5-1.817,7.823-.559,1.964-1.447,1.239-1.532,3.355-.064,1.622.305,3.156-.112,4.764-.939,3.607-1.8,6.583-1.722,10.324C9.665,46.236,7.537,51.066,7.6,56.3c.115,8.887.027,17.777.02,26.664-.01,9.284-1.908,18.094-1.908,27.405v51.308c0,6.932.437,13.677-1.485,20.4-.908,3.183.142,6.325-.325,9.522-.244,1.67-1.213,2.941-1.579,4.526-.546,2.358-.078,4.533-.325,6.88-.366,3.446-2.067,6.49-2,10.009.058,2.888.054,5.788,0,8.677-.115,5.965,4.27,12.03,11.717,15.509,7.484,3.5,18.143,6.273,26.941,8,9.971,1.962,19.749,3.117,30.039,4.463,5.569.727,11.042-.188,16.6.222,6.846.505,12.588,1.364,19.627,1.337,14.73-.059,29.463,0,44.193,0H316.626c6.7,0,13.425-.1,20.126-.029,6.243.068,12,1.38,18.289,1.332,15.842-.118,31.693-.029,47.538-.029h79c10.466,0,20.017.394,30.036-1.629,9.168-1.851,19.844-4.266,24.352-10.593,2.281-3.2,2.393-7.406,3.3-10.788.8-2.943-.237-5.931.329-8.892,1.522-7.979,6.013-15.625,5.864-23.805-.149-8.083-.075-16.171-.044-24.254a33.806,33.806,0,0,0-1.484-10.761c-1.491-4.787-.424-10.14-.424-15.009,0-19.383-1.058-38.705-5.3-57.814-1.8-8.133-.529-16.889-.43-25.113.044-3.869-1.4-6.792-2-10.552-.688-4.332.1-9.116.1-13.479,0-7.082.444-13.794-1.922-20.65-1.44-4.168-7.331-5.824-13.395-7.648a136.6,136.6,0,0,0-20.858-4.776,58.248,58.248,0,0,0-7.792-.258c-4.1,0-7.341-.8-11.341-1.153-6.409-.562-12.957-1.477-19.454-1.427-9.158.072-17.726.125-26.687-.961-8.605-1.042-17.5.127-26.175-.217-9.693-.387-18.861-1.368-28.646-1.312-9.3.054-17.906-1.33-27.233-1.3C344.293.134,336.2.1,328.112.1c-3.718,0-7.531-.195-11.236-.048-3.772.152-6.951,1.178-10.693,1.389-7.412.421-15.109-.2-22.549-.1-7.019.1-13.306,1.337-20.468,1.3-7.273-.039-13.455.745-20.485,1.346C237.659,4.422,212.812,5,207.738,5" transform="translate(545.471 252.529) rotate(180)" fill="#fe6c6c"/>
</svg>
