<svg xmlns="http://www.w3.org/2000/svg" width="535.414" height="249.995" viewBox="0 0 535.414 249.995">
  <path id="Path_1205" data-name="Path 1205" d="M80,4.744c-1.9,0-21.089-.529-22.995-.659-1.783-.121-2.562-.639-4.338-.776-6.421-.493-13.314.078-19.781.02A22.254,22.254,0,0,0,24.1,5.177c-2.971,1.269-3.842,2.42-5.612,4.349a25.381,25.381,0,0,0-4.025,5.066c-1.55,3.261-.855,4.456-1.78,7.742-.549,1.944-1.424,1.227-1.507,3.324-.06,1.6.3,3.122-.106,4.714-.922,3.57-1.773,6.517-1.693,10.22.113,5.179-1.976,9.96-1.91,15.143.11,8.8.027,17.6.017,26.395-.007,9.191-1.873,17.913-1.873,27.133v50.791c0,6.863.429,13.539-1.454,20.193-.892,3.151.136,6.262-.319,9.426-.24,1.655-1.194,2.911-1.554,4.481-.536,2.335-.073,4.488-.319,6.811C1.606,204.376-.064,207.39,0,210.873c.057,2.859.057,5.73,0,8.59-.113,5.905,4.192,11.909,11.5,15.354,7.346,3.463,17.808,6.21,26.441,7.924,9.791,1.94,19.385,3.084,29.489,4.416,5.466.72,10.839-.186,16.295.22,6.72.5,12.352,1.35,19.265,1.323,14.458-.058,28.92,0,43.378,0H310.791c6.58,0,13.174-.1,19.755-.029,6.128.067,11.773,1.366,17.948,1.319,15.55-.117,31.112-.029,46.662-.029h77.551c10.273,0,19.648.39,29.479-1.61,9-1.832,19.482-4.225,23.9-10.489,2.239-3.169,2.349-7.332,3.247-10.68.782-2.911-.236-5.869.319-8.8,1.5-7.9,5.9-15.466,5.756-23.567-.143-8-.073-16.009-.043-24.011a33.831,33.831,0,0,0-1.454-10.653c-1.464-4.737-.416-10.039-.416-14.858,0-19.189-1.038-38.317-5.2-57.235-1.773-8.051-.519-16.72-.426-24.861.047-3.831-1.374-6.724-1.959-10.447-.679-4.288.1-9.025.1-13.344,0-7.011.432-13.656-1.89-20.443-1.414-4.127-7.192-5.766-13.147-7.571A133.076,133.076,0,0,0,490.5,6.666a56.732,56.732,0,0,0-7.652-.256c-4.025,0-7.206-.8-11.128-1.142-6.294-.556-12.718-1.462-19.1-1.411-8.986.069-17.4.121-26.192-.953-8.45-1.032-17.183.128-25.7-.215-9.511-.381-18.51-1.355-28.115-1.3-9.129.054-17.575-1.317-26.734-1.285C337.945.13,330,.094,322.066.1c-3.649,0-7.392-.193-11.032-.047-3.7.148-6.82,1.164-10.493,1.373-7.276.417-14.834-.2-22.133-.094-6.89.1-13.064,1.323-20.094,1.287-7.136-.036-13.207.738-20.107,1.332-4.93.424-29.316,1-34.3,1" transform="translate(535.414 249.995) rotate(180)" fill="#59e6c5"/>
</svg>
