<svg xmlns="http://www.w3.org/2000/svg" width="551.689" height="260.005" viewBox="0 0 551.689 260.005">
  <g id="Group_352" data-name="Group 352" transform="translate(-104.571 -868.476)">
    <path id="Path_1204" data-name="Path 1204" d="M81.5,4.794c-1.939,0-21.481-.535-23.423-.666-1.817-.122-2.613-.646-4.423-.784-6.538-.5-13.564.079-20.153.02a22.821,22.821,0,0,0-8.948,1.867c-3.027,1.282-3.918,2.444-5.718,4.393a25.486,25.486,0,0,0-4.1,5.115c-1.579,3.3-.871,4.5-1.817,7.823-.559,1.964-1.447,1.239-1.532,3.355-.064,1.622.305,3.156-.112,4.764-.939,3.607-1.8,6.583-1.722,10.324C9.665,46.236,7.537,51.066,7.6,56.3c.115,8.887.027,17.777.02,26.664-.01,9.284-1.908,18.094-1.908,27.405v51.308c0,6.932.437,13.677-1.485,20.4-.908,3.183.142,6.325-.325,9.522-.244,1.67-1.213,2.941-1.579,4.526-.546,2.358-.078,4.533-.325,6.88-.366,3.446-2.067,6.49-2,10.009.058,2.888.054,5.788,0,8.677-.115,5.965,4.27,12.03,11.717,15.509,7.484,3.5,18.143,6.273,26.941,8,9.971,1.962,19.749,3.117,30.039,4.463,5.569.727,11.042-.188,16.6.222,6.846.505,12.588,1.364,19.627,1.337,14.73-.059,29.463,0,44.193,0H316.626c6.7,0,13.425-.1,20.126-.029,6.243.068,12,1.38,18.289,1.332,15.842-.118,31.693-.029,47.538-.029h79c10.466,0,20.017.394,30.036-1.629,9.168-1.851,19.844-4.266,24.352-10.593,2.281-3.2,2.393-7.406,3.3-10.788.8-2.943-.237-5.931.329-8.892,1.522-7.979,6.013-15.625,5.864-23.805-.149-8.083-.075-16.171-.044-24.254a33.806,33.806,0,0,0-1.484-10.761c-1.491-4.787-.424-10.14-.424-15.009,0-19.383-1.058-38.705-5.3-57.814-1.8-8.133-.529-16.889-.43-25.113.044-3.869-1.4-6.792-2-10.552-.688-4.332.1-9.116.1-13.479,0-7.082.444-13.794-1.922-20.65-1.44-4.168-7.331-5.824-13.395-7.648a136.6,136.6,0,0,0-20.858-4.776,58.248,58.248,0,0,0-7.792-.258c-4.1,0-7.341-.8-11.341-1.153-6.409-.562-12.957-1.477-19.454-1.427-9.158.072-17.726.125-26.687-.961-8.605-1.042-17.5.127-26.175-.217-9.693-.387-18.861-1.368-28.646-1.312-9.3.054-17.906-1.33-27.233-1.3C344.293.134,336.2.1,328.112.1c-3.718,0-7.531-.195-11.236-.048-3.772.152-6.951,1.178-10.693,1.389-7.412.421-15.109-.2-22.549-.1-7.019.1-13.306,1.337-20.468,1.3-7.273-.039-13.455.745-20.485,1.346C237.659,4.422,212.812,5,207.738,5" transform="translate(656.26 1128.481) rotate(180)" fill="#fe6c6c"/>
    <g id="Group_351" data-name="Group 351">
      <path id="Path_1029" data-name="Path 1029" d="M81.5,4.794c-1.939,0-21.481-.535-23.423-.666-1.817-.122-2.613-.646-4.423-.784-6.538-.5-13.564.079-20.153.02a22.821,22.821,0,0,0-8.948,1.867c-3.027,1.282-3.918,2.444-5.718,4.393a25.486,25.486,0,0,0-4.1,5.115c-1.579,3.3-.871,4.5-1.817,7.823-.559,1.964-1.447,1.239-1.532,3.355-.064,1.622.305,3.156-.112,4.764-.939,3.607-1.8,6.583-1.722,10.324C9.665,46.236,7.537,51.066,7.6,56.3c.115,8.887.027,17.777.02,26.664-.01,9.284-1.908,18.094-1.908,27.405v51.308c0,6.932.437,13.677-1.485,20.4-.908,3.183.142,6.325-.325,9.522-.244,1.67-1.213,2.941-1.579,4.526-.546,2.358-.078,4.533-.325,6.88-.366,3.446-2.067,6.49-2,10.009.058,2.888.054,5.788,0,8.677-.115,5.965,4.27,12.03,11.717,15.509,7.484,3.5,18.143,6.273,26.941,8,9.971,1.962,19.749,3.117,30.039,4.463,5.569.727,11.042-.188,16.6.222,6.846.505,12.588,1.364,19.627,1.337,14.73-.059,29.463,0,44.193,0H316.626c6.7,0,13.425-.1,20.126-.029,6.243.068,12,1.38,18.289,1.332,15.842-.118,31.693-.029,47.538-.029h79c10.466,0,20.017.394,30.036-1.629,9.168-1.851,19.844-4.266,24.352-10.593,2.281-3.2,2.393-7.406,3.3-10.788.8-2.943-.237-5.931.329-8.892,1.522-7.979,6.013-15.625,5.864-23.805-.149-8.083-.075-16.171-.044-24.254a33.806,33.806,0,0,0-1.484-10.761c-1.491-4.787-.424-10.14-.424-15.009,0-19.383-1.058-38.705-5.3-57.814-1.8-8.133-.529-16.889-.43-25.113.044-3.869-1.4-6.792-2-10.552-.688-4.332.1-9.116.1-13.479,0-7.082.444-13.794-1.922-20.65-1.44-4.168-7.331-5.824-13.395-7.648a136.6,136.6,0,0,0-20.858-4.776,58.248,58.248,0,0,0-7.792-.258c-4.1,0-7.341-.8-11.341-1.153-6.409-.562-12.957-1.477-19.454-1.427-9.158.072-17.726.125-26.687-.961-8.605-1.042-17.5.127-26.175-.217-9.693-.387-18.861-1.368-28.646-1.312-9.3.054-17.906-1.33-27.233-1.3C344.293.134,336.2.1,328.112.1c-3.718,0-7.531-.195-11.236-.048-3.772.152-6.951,1.178-10.693,1.389-7.412.421-15.109-.2-22.549-.1-7.019.1-13.306,1.337-20.468,1.3-7.273-.039-13.455.745-20.485,1.346C237.659,4.422,212.812,5,207.738,5" transform="translate(650.565 1121.529) rotate(180)" fill="#fff" stroke="#ff4750" stroke-miterlimit="10" stroke-width="1.049"/>
      <text id="Find_your_people" data-name="Find your people" transform="translate(299.813 959.146)" fill="#2f3037" font-size="28" font-family="SegoeUI-Bold, Segoe UI" font-weight="700"><tspan x="0" y="0">Find your people</tspan></text>
      <text id="A_true_supporter_is_worth_more_than_a_thousand_subscribers" data-name="A true supporter is worth more than a thousand subscribers" transform="translate(299.499 976.04)" fill="#2f3037" font-size="18" font-family="ComicSansMS, Comic Sans MS"><tspan x="0" y="20">A true supporter is worth more </tspan><tspan x="0" y="47">than a thousand subscribers</tspan></text>
      <g id="Group_338" data-name="Group 338" transform="matrix(0.891, 0.454, -0.454, 0.891, 179.985, 908.217)">
        <path id="Path_1124" data-name="Path 1124" d="M124.264,63.208c-9.9-3.343-19.9-6.365-29.792-9.743-4.76-1.627-9.5-3.308-14.252-4.957-4.129-1.434-8.485-3.59-12.887-3.9a38.588,38.588,0,0,0-1.5-21.01C59.244,6.037,40.112-4.605,21.89,1.954,2.493,8.937-4.267,31.81,2.627,50.147,6.074,59.315,12.664,67.29,21.713,71.308a33.479,33.479,0,0,0,14.261,3.013,20.794,20.794,0,0,0,6.4-1.17,6.769,6.769,0,0,0,4.794-.54A38.178,38.178,0,0,0,63.106,56.47c3.3,2.35,7.322,3.459,11.161,4.917,5.068,1.924,10.179,3.727,15.3,5.5,10.221,3.55,20.485,7.15,30.888,10.129C129.388,79.577,132.935,66.136,124.264,63.208ZM39.321,60.983A24.393,24.393,0,0,1,15.788,44.62c-3.942-11.583-.228-26.951,13.152-29.79C40.5,12.38,50.626,20.4,53.225,31.483,56.2,44.16,48.546,53.627,39.321,60.983Z" transform="translate(4.518 4.567)" fill="#fe6c6c"/>
        <path id="Path_1125" data-name="Path 1125" d="M79.427,48.5a2.727,2.727,0,0,0-1-.06c2.155-17.5-4.884-35.593-21.661-44.292C38.11-5.524,13.771,2.363,4.3,21.118-5.416,40.343,1.919,63.944,20.438,74.652c16.384,9.473,42.363,6.9,50.67-11.434a2.736,2.736,0,0,0,2.059.347A387.617,387.617,0,0,0,113.841,80.39c5.288,1.772,17.075,4.9,20.19-2.455C141.514,60.264,88.142,50.662,79.427,48.5ZM9.87,22.278C18.436,7.062,38.9.948,54.325,9.222c18.445,9.9,22.38,31.95,15.6,50.226C45.276,94.857-11.581,60.392,9.87,22.278ZM121,77.418c-2.812,1.105-8.864-2.812-11.867-3.94-4.846-1.821-9.659-3.724-14.51-5.531-6.444-2.4-12.918-4.719-19.449-6.863a50.657,50.657,0,0,0,2.36-7.552,2.955,2.955,0,0,0,.849.368c7.912,1.963,15.787,4.079,23.6,6.415,4.735,1.416,9.522,2.808,14.147,4.549C119.774,66.236,134.913,71.945,121,77.418Z" transform="translate(0 0)" fill="#3c3c3b"/>
        <path id="Path_1126" data-name="Path 1126" d="M36.992,2.842C24.149-3.663,7.607,1.275,1.983,14.83-3.875,28.952,3.84,44.643,17.3,50.905c11.552,5.375,28.92,2.582,32.83-11.036a.854.854,0,0,0-.315-.918C54.156,25.581,50.376,9.619,36.992,2.842ZM5.713,17.724c4.3-11.9,18.122-16.7,29.363-10.895,11.374,5.871,14.057,20.4,9.717,31.523a2.574,2.574,0,0,0,1.295,3.272C29.6,57.994-3.053,42,5.713,17.724Z" transform="translate(11.9 13.871)" fill="#3c3c3b"/>
        <path id="Path_1127" data-name="Path 1127" d="M4.508.5C4.3-.383,3.062.012,3.186.86a21.57,21.57,0,0,1-3.1,15.362c-.374.589.523,1.076.919.536A19.929,19.929,0,0,0,4.508.5Z" transform="translate(46.676 39.425)" fill="#3c3c3b"/>
        <path id="Path_1128" data-name="Path 1128" d="M3.218.489C3.11-.268,1.792-.1,1.872.671A46.141,46.141,0,0,1,.025,19.948c-.184.57.68.787.884.244A39.7,39.7,0,0,0,3.218.489Z" transform="translate(43.176 30.961)" fill="#3c3c3b"/>
        <path id="Path_1129" data-name="Path 1129" d="M31.934,11.051C21.752,6.869,11.052,3.487.6.029c-.617-.2-.85.734-.265.96,10.272,3.987,20.688,8.2,31.214,11.449C32.458,12.719,32.765,11.392,31.934,11.051Z" transform="translate(86.528 79.119)" fill="#3c3c3b"/>
        <path id="Path_1130" data-name="Path 1130" d="M35.382,6.054C31.056,9.93,21.791,6.8,16.747,5.543A98.812,98.812,0,0,1,1.031.063C.251-.276-.441.848.35,1.227A90.706,90.706,0,0,0,22.459,8.565c4.539.87,10.694,2.686,14.229-1.207A.923.923,0,0,0,35.382,6.054Z" transform="translate(89.792 87.822)" fill="#3c3c3b"/>
      </g>
    </g>
  </g>
</svg>
