<svg xmlns="http://www.w3.org/2000/svg" width="558.27" height="252.413" viewBox="0 0 558.27 252.413">
  <g id="Group_351" data-name="Group 351" transform="translate(-403.604 -1191.532)">
    <path id="Path_1206" data-name="Path 1206" d="M82.067,4.607c-1.952,0-21.633-.516-23.589-.64-1.829-.118-2.628-.623-4.45-.756-6.587-.479-13.658.076-20.292.02a23.983,23.983,0,0,0-9.013,1.794c-3.048,1.232-3.942,2.349-5.757,4.221a24.9,24.9,0,0,0-4.129,4.918c-1.59,3.165-.877,4.328-1.826,7.515-.563,1.89-1.461,1.191-1.546,3.226-.061,1.557.311,3.033-.109,4.578-.945,3.466-1.819,6.324-1.737,9.921.116,5.027-2.027,9.666-1.959,14.7.113,8.538.027,17.081.017,25.621C7.671,88.644,5.756,97.11,5.756,106.06v49.3c0,6.662.44,13.143-1.491,19.6-.915,3.059.14,6.078-.328,9.15-.246,1.607-1.225,2.826-1.594,4.35-.549,2.266-.075,4.356-.328,6.612-.369,3.311-2.082,6.237-2.013,9.618.058,2.778.058,5.562,0,8.338-.116,5.732,4.3,11.56,11.8,14.9,7.535,3.361,18.268,6.028,27.124,7.691,10.044,1.883,19.886,3,30.25,4.287,5.607.7,11.119-.181,16.715.213,6.894.486,12.671,1.311,19.763,1.284,14.832-.057,29.667,0,44.5,0H318.816c6.75,0,13.514-.1,20.265-.028,6.286.065,12.078,1.326,18.412,1.282,15.951-.115,31.916-.028,47.867-.028h79.553c10.538,0,20.155.377,30.24-1.565,9.235-1.779,19.985-4.1,24.52-10.182,2.3-3.076,2.409-7.117,3.331-10.367.8-2.826-.242-5.7.328-8.543,1.536-7.667,6.054-15.015,5.9-22.878-.147-7.768-.075-15.54-.044-23.307a31.2,31.2,0,0,0-1.491-10.341c-1.5-4.6-.427-9.742-.427-14.423,0-18.627-1.065-37.192-5.334-55.557-1.819-7.816-.532-16.23-.437-24.132.048-3.716-1.409-6.527-2.01-10.141-.7-4.162.1-8.76.1-12.953,0-6.8.444-13.254-1.938-19.844-1.45-4.006-7.378-5.6-13.487-7.35a143.089,143.089,0,0,0-21-4.589,61.877,61.877,0,0,0-7.849-.248c-4.129,0-7.392-.771-11.415-1.108-6.457-.54-13.047-1.417-19.592-1.369-9.218.068-17.845.12-26.868-.925-8.668-1-17.627.124-26.36-.209-9.757-.37-18.988-1.315-28.841-1.258C372.877,1.4,364.212.072,354.817.1c-8.146.024-16.292-.009-24.435,0-3.744,0-7.583-.187-11.316-.046-3.795.144-7,1.13-10.764,1.334-7.464.4-15.217-.2-22.7-.094-7.068.1-13.4,1.285-20.613,1.25-7.32-.035-13.548.716-20.626,1.293-5.058.411-30.073.967-35.185.967" transform="translate(961.873 1443.944) rotate(180)" fill="#ffdf00"/>
    <path id="Path_922" data-name="Path 922" d="M82.067,4.607c-1.952,0-21.633-.516-23.589-.64-1.829-.118-2.628-.623-4.45-.756-6.587-.479-13.658.076-20.292.02a23.983,23.983,0,0,0-9.013,1.794c-3.048,1.232-3.942,2.349-5.757,4.221a24.9,24.9,0,0,0-4.129,4.918c-1.59,3.165-.877,4.328-1.826,7.515-.563,1.89-1.461,1.191-1.546,3.226-.061,1.557.311,3.033-.109,4.578-.945,3.466-1.819,6.324-1.737,9.921.116,5.027-2.027,9.666-1.959,14.7.113,8.538.027,17.081.017,25.621C7.671,88.644,5.756,97.11,5.756,106.06v49.3c0,6.662.44,13.143-1.491,19.6-.915,3.059.14,6.078-.328,9.15-.246,1.607-1.225,2.826-1.594,4.35-.549,2.266-.075,4.356-.328,6.612-.369,3.311-2.082,6.237-2.013,9.618.058,2.778.058,5.562,0,8.338-.116,5.732,4.3,11.56,11.8,14.9,7.535,3.361,18.268,6.028,27.124,7.691,10.044,1.883,19.886,3,30.25,4.287,5.607.7,11.119-.181,16.715.213,6.894.486,12.671,1.311,19.763,1.284,14.832-.057,29.667,0,44.5,0H318.816c6.75,0,13.514-.1,20.265-.028,6.286.065,12.078,1.326,18.412,1.282,15.951-.115,31.916-.028,47.867-.028h79.553c10.538,0,20.155.377,30.24-1.565,9.235-1.779,19.985-4.1,24.52-10.182,2.3-3.076,2.409-7.117,3.331-10.367.8-2.826-.242-5.7.328-8.543,1.536-7.667,6.054-15.015,5.9-22.878-.147-7.768-.075-15.54-.044-23.307a31.2,31.2,0,0,0-1.491-10.341c-1.5-4.6-.427-9.742-.427-14.423,0-18.627-1.065-37.192-5.334-55.557-1.819-7.816-.532-16.23-.437-24.132.048-3.716-1.409-6.527-2.01-10.141-.7-4.162.1-8.76.1-12.953,0-6.8.444-13.254-1.938-19.844-1.45-4.006-7.378-5.6-13.487-7.35a143.089,143.089,0,0,0-21-4.589,61.877,61.877,0,0,0-7.849-.248c-4.129,0-7.392-.771-11.415-1.108-6.457-.54-13.047-1.417-19.592-1.369-9.218.068-17.845.12-26.868-.925-8.668-1-17.627.124-26.36-.209-9.757-.37-18.988-1.315-28.841-1.258C372.877,1.4,364.212.072,354.817.1c-8.146.024-16.292-.009-24.435,0-3.744,0-7.583-.187-11.316-.046-3.795.144-7,1.13-10.764,1.334-7.464.4-15.217-.2-22.7-.094-7.068.1-13.4,1.285-20.613,1.25-7.32-.035-13.548.716-20.626,1.293-5.058.411-30.073.967-35.185.967" transform="translate(953.365 1434.727) rotate(180)" fill="#fff" stroke="#ffdf00" stroke-miterlimit="10" stroke-width="1.049"/>
    <text id="Fund_your_creativity" data-name="Fund your creativity" transform="translate(619.006 1283.749)" fill="#2f3037" font-size="28" font-family="SegoeUI-Bold, Segoe UI" font-weight="700"><tspan x="0" y="0">Fund your creativity</tspan></text>
    <text id="Give_your_people_an_easy_way_to_support_your_creative_work" data-name="Give your people an easy way to support your creative work" transform="translate(619.006 1308.531)" fill="#2f3037" font-size="20" font-family="ComicSansMS, Comic Sans MS"><tspan x="0" y="22">Give your people an easy way </tspan><tspan x="0" y="49">to support your creative work</tspan></text>
    <g id="Group_345" data-name="Group 345" transform="translate(461.89 1247.35)">
      <g id="Group_342" data-name="Group 342" transform="matrix(0.995, -0.105, 0.105, 0.995, 0, 7.885)">
        <path id="Path_1199" data-name="Path 1199" d="M65.4,66.816H4.7L0,0H70.1Z" transform="translate(2.668 36.328)" fill="#ffdf00"/>
        <path id="Path_1200" data-name="Path 1200" d="M69.6,4.6,69.924,0H0L.323,4.6Z" transform="translate(2.757 44.774)" fill="#d4b23b"/>
        <rect id="Rectangle_18" data-name="Rectangle 18" width="75.439" height="18.596" transform="translate(0 27.785)" fill="#ffdf00"/>
        <path id="Path_1201" data-name="Path 1201" d="M18.6,0,16.245,72.312H2.351L0,0Z" transform="translate(28.421 30.832)" fill="#474747"/>
        <g id="Group_341" data-name="Group 341" transform="translate(5.205 0)">
          <path id="Path_1202" data-name="Path 1202" d="M22.092,7.092C13.539-1.46,6.855-1.428,2.714,2.713S-1.461,13.538,7.093,22.092s26.6,11.6,26.6,11.6S30.646,15.646,22.092,7.092ZM5.756,5.756A4.531,4.531,0,0,1,9.073,4.3c2.672,0,6.215,2.071,9.977,5.832,4.263,4.263,7.2,11.9,8.875,17.784-5.544-1.56-13.316-4.4-17.791-8.87C6.836,15.749,1.878,9.634,5.756,5.756Z" transform="translate(0 0)" fill="#474747"/>
          <path id="Path_1203" data-name="Path 1203" d="M0,23.68s12.682-2.139,18.695-8.152,5.99-10.71,3.078-13.621S14.164-1.027,8.152,4.985,0,23.68,0,23.68ZM16.557,13.39c-3.145,3.145-8.608,5.139-12.505,6.235,1.178-4.133,3.242-9.5,6.239-12.5,2.644-2.644,5.135-4.1,7.013-4.1a3.184,3.184,0,0,1,2.332,1.022C22.36,6.772,18.876,11.07,16.557,13.39Z" transform="translate(31.338 10.008)" fill="#474747"/>
        </g>
      </g>
      <g id="Group_343" data-name="Group 343" transform="translate(67.201 48.075)">
        <path id="Path_1199-2" data-name="Path 1199" d="M36.149,36.931H2.6L0,0H38.748Z" transform="translate(1.475 21.807)" fill="#f8dc17"/>
        <path id="Path_1200-2" data-name="Path 1200" d="M38.47,2.54,38.649,0H0L.179,2.54Z" transform="translate(1.524 26.475)" fill="#d4b23b"/>
        <rect id="Rectangle_18-2" data-name="Rectangle 18" width="41.697" height="10.278" transform="translate(0 17.085)" fill="#f8dc17"/>
        <path id="Path_1201-2" data-name="Path 1201" d="M10.278,0l-1.3,39.969H1.3L0,0Z" transform="translate(15.709 18.769)" fill="#474747"/>
        <g id="Group_341-2" data-name="Group 341" transform="translate(2.429 0)">
          <path id="Path_1202-2" data-name="Path 1202" d="M11.653,3.741C7.141-.77,3.616-.753,1.432,1.431s-2.2,5.71,2.31,10.221S17.77,17.769,17.77,17.769,16.165,8.253,11.653,3.741Zm-8.617-.7a2.39,2.39,0,0,1,1.75-.767c1.409,0,3.278,1.092,5.262,3.076,2.249,2.249,3.8,6.279,4.681,9.38-2.924-.823-7.024-2.318-9.384-4.679C3.606,8.307.991,5.082,3.036,3.036Z" transform="translate(0 2.578)" fill="#474747"/>
          <path id="Path_1203-2" data-name="Path 1203" d="M0,20.348s10.9-1.838,16.064-7,5.147-9.2,2.645-11.7S12.171-.882,7,4.284,0,20.348,0,20.348Zm14.227-8.842c-2.7,2.7-7.4,4.415-10.745,5.357C4.493,13.312,6.267,8.7,8.842,6.122,11.114,3.85,13.254,2.6,14.868,2.6a2.736,2.736,0,0,1,2,.878C19.214,5.819,16.219,9.513,14.227,11.506Z" transform="translate(17.77)" fill="#474747"/>
        </g>
      </g>
    </g>
  </g>
</svg>
